/* XPM */
static char *_7ad670edfc74289f78f97d5d01d0b675JGxHYIaNK9yqxeN[] = {
/* columns rows colors chars-per-pixel */
"52 50 217 2 ",
"   c #B09464",
".  c #D27D02",
"X  c #D87F06",
"o  c #D77F09",
"O  c #D87F08",
"+  c #CB7D15",
"@  c #C47B1A",
"#  c #C67A19",
"$  c #C67F20",
"%  c #D58304",
"&  c #D98405",
"*  c #DB8C04",
"=  c #D68409",
"-  c #DA830A",
";  c #DB8B0B",
":  c #D1880F",
">  c #DF9206",
",  c #DC920C",
"<  c #CD8414",
"1  c #CF8810",
"2  c #C6821E",
"3  c #CB861C",
"4  c #CE8C1C",
"5  c #D28514",
"6  c #D68C13",
"7  c #DB8E14",
"8  c #D58C1B",
"9  c #D98D19",
"0  c #DA8711",
"q  c #DB9314",
"w  c #DE9B13",
"e  c #D6921D",
"r  c #DA931B",
"t  c #DD9A1B",
"y  c #D4951A",
"u  c #E18E09",
"i  c #E08D07",
"p  c #E19406",
"a  c #E2930C",
"s  c #E59C0D",
"d  c #E29516",
"f  c #E29C14",
"g  c #E19619",
"h  c #E39C1B",
"j  c #DFA31E",
"k  c #E4A10E",
"l  c #E5A414",
"z  c #E4A31C",
"x  c #E5AB1B",
"c  c #E9AD1A",
"v  c #E8A719",
"b  c #E7B21F",
"n  c #EBB31D",
"m  c #C68423",
"M  c #CB8522",
"N  c #CB8A24",
"B  c #C78B2B",
"V  c #CB8D2C",
"C  c #D58E20",
"Z  c #D88F21",
"A  c #CD9324",
"S  c #CD9D24",
"D  c #CD932B",
"F  c #D49424",
"G  c #DA9523",
"H  c #D39B25",
"J  c #DD9C22",
"K  c #D49429",
"L  c #D39A2B",
"P  c #DB9C2A",
"I  c #CD9331",
"U  c #D49530",
"Y  c #D49C33",
"T  c #D99D32",
"R  c #CEA426",
"E  c #CEAA29",
"W  c #CFA52D",
"Q  c #D4A326",
"!  c #DCA424",
"~  c #D8A827",
"^  c #D4A42C",
"/  c #DDA32B",
"(  c #D1AD2C",
")  c #DDAE2B",
"_  c #DFB127",
"`  c #D5B12D",
"'  c #DDB22B",
"]  c #D7A131",
"[  c #DCA432",
"{  c #D2AD33",
"}  c #DAAB33",
"|  c #D3B231",
" . c #DDB333",
".. c #DBBC33",
"X. c #DBB63C",
"o. c #DCBB3C",
"O. c #D6B832",
"+. c #E4A422",
"@. c #E9A522",
"#. c #E5AB25",
"$. c #EAAB25",
"%. c #E1A42C",
"&. c #E4AC2C",
"*. c #ECAE29",
"=. c #E7B323",
"-. c #EAB423",
";. c #ECBB25",
":. c #E6B32D",
">. c #ECB32A",
",. c #E4BD2C",
"<. c #EBBB2C",
"1. c #F2BE25",
"2. c #F1B62C",
"3. c #F2BA2E",
"4. c #E1A431",
"5. c #E3AC32",
"6. c #E5B333",
"7. c #E8B533",
"8. c #E4B933",
"9. c #EBBB33",
"0. c #E9B738",
"q. c #E5BC3A",
"w. c #EBBB39",
"e. c #E2B038",
"r. c #F2BD31",
"t. c #DCC335",
"y. c #DFC238",
"u. c #EDC22A",
"i. c #F2C42B",
"p. c #F4CB2D",
"a. c #F0C227",
"s. c #EDC235",
"d. c #ECCB33",
"f. c #EDC33A",
"g. c #E3CB3B",
"h. c #EDCA3E",
"j. c #E4C536",
"k. c #F4C334",
"l. c #F5CB35",
"z. c #F8CB37",
"x. c #F1C63A",
"c. c #F4CC3A",
"v. c #F9CE3A",
"b. c #EED837",
"n. c #ECDA3A",
"m. c #EFD13B",
"M. c #F5D334",
"N. c #F8D433",
"B. c #FADA36",
"V. c #F5D33C",
"C. c #FBD33E",
"Z. c #F5DB3D",
"A. c #F9DD3B",
"S. c #FBE23B",
"D. c #FCEC3E",
"F. c #F4E73E",
"G. c #DBB940",
"H. c #E8C640",
"J. c #E4CB44",
"K. c #ECCC43",
"L. c #EDCE4A",
"P. c #E5C946",
"I. c #F3CD41",
"U. c #EBD444",
"Y. c #EEDC42",
"T. c #ECD34B",
"R. c #EAD748",
"E. c #F6D544",
"W. c #FBD640",
"Q. c #F6DB41",
"!. c #FCDC43",
"~. c #F3D54B",
"^. c #F4DB4C",
"/. c #F8DE4C",
"(. c #EDD450",
"). c #F3D651",
"_. c #F5DC53",
"`. c #F8DE56",
"'. c #F6DF59",
"]. c #F5E245",
"[. c #FBE443",
"{. c #F6EA43",
"}. c #FCEB45",
"|. c #F7E34B",
" X c #FBE44B",
".X c #FCEC4C",
"XX c #F7E84D",
"oX c #FDF243",
"OX c #FDF24A",
"+X c #F9E354",
"@X c #FBE956",
"#X c #FDEE55",
"$X c #FDEE51",
"%X c #F7E058",
"&X c #FAE35A",
"*X c #FBEA59",
"=X c #FDED59",
"-X c #FBE95C",
";X c #FCEB5A",
":X c #F7E653",
">X c #FDF652",
",X c #FDF654",
"<X c #FEF152",
"1X c #FDF956",
"2X c #FCF951",
"3X c #FDF95A",
"4X c #FCF95D",
"5X c #FCF75A",
"6X c #FDFA61",
"7X c #FDFA66",
"8X c #FBFC65",
"9X c #FDFB6C",
"0X c #FCFC75",
"qX c #FCFC71",
"wX c #FCFC7D",
"eX c #FCFC79",
"rX c #FBFC82",
/* pixels */
"                                                                                                        ",
"                                                                                                        ",
"                                                                                                        ",
"                                        rXeX9X7X6X4X1X1X3X6X9X0XwX                                      ",
"                                  wXqX6X,XOXOXOXOXOXoXoXoXOXOXOXOX3XqXwX                                ",
"                              0X7X1XOXOXOXOXOXOX}.}.{.{.}.OXOXoXoXOXOX>X7X0X                            ",
"                            7X,XOXOXOX.X{.Y.g.t.O.` E ( | ..g.n.{.OXOXOXOX>X6X8X                        ",
"                        8X3XOX.X.X}.Y.t.| | o.H.U.U.U.U.K.g...( ( t.Y.}.OXOXoX2X4X                      ",
"                      4X>X.X.X}.Y...{ o.R.:X#X<X<X<X$X.X.X$X$XXXU...( O.Y.oXoXoXOX1X                    ",
"                    5XOX}.}.[.g.{ o._.;X=X=X<X<X$X$X.X.X.X<X<X.X.X.X].y.( t.F.oXoXoX2X                  ",
"                  ,XOX}.}.].O.{ (.-X=X=X=X=X#X#X@XXXXXXXXX.X.X.X.X.X.X.XY.` ( n.oXoXoXOX                ",
"                >X.X[.[.Z.| X.'.-X*X;X*X@X@X@X@X+X^._.^.|..X.XXX.XXX.X.X.X].O.E n.D.D.oXOX              ",
"              OX.X[.[.Z.` G.&X&X-X;X*X&X+X+X+X+XR.U.#XR.R. X X X X X X.X.X}.[...R b.D.D.}.oX            ",
"              }.[.S.Z.` X.%X&X-X-X&X&X&X+X+X+X_.J.|.>X$XU.^. XXXXX X X X X[.[.[.O.E Z.S.S.D.            ",
"            }.[.A.A...{ _.&X&X&X&X&X&X&X&X%X%XT.U..X<X<XY.U.|.+XXXXX|.].|.[.[.[.Z.( ` A.S.S.D.          ",
"            [.A.A.d.W L.%X&X&X%X'.%X&X&X%X%X_.J.]..X<X<XXXJ.^.+X X X|.|.].[.!.A.A.m.S j.A.B.S.          ",
"          [.S.A.B.` X._.`.%X_._._.`.`.%X%X_.T.U.}..X$X$X.XU.L./. X X X|.Q.!.Q.Z.Z.Z.8.Q M.B.B.S.        ",
"          S.B.B.d.^ L.^./.).).)._.`.`.`.`.).P.Q.}..X.X.X.X|.J.^././././.Q.Q.Q.Z.Z.Z.V.R ,.N.N.B.        ",
"        !.A.M.M.'  .~.^.^.~.).~.).).).).).P.g.[.}. X X X X XU.P.~.~.^.E.E.E.V.V.V.V.V.' Q l.l.N.A.      ",
"        A.N.M.d.Q H.~.~.~.~.L.L.L.L.T.T.T.T.Q.!. X X X X X X|.T.T.T.L.K.K.h.c.c.c.V.V.s.S u.p.p.B.      ",
"        B.l.l.,.^ K.E.E.K.K.L.T.T.^.^././.!.!.!.!.!.!.!.!.!.!. X/./.^.^.R.U.K.h.f.c.v.l.Q _ p.i.N.      ",
"        N.p.p._ } I.I.I.q.c.Q.E.W.C.C.C.C.C.C.W.!.W.W.W.!.!.!.!.!.!.C.C.C.W.W.V.8.x.l.x.) Q i.u.p.      ",
"        p.u.p.~  .x.I.h.q.w.v.C.C.C.C.C.C.C.C.C.W.C.C.C.C.C.W.W.C.C.C.C.C.C.v.9. .s.x.k.:.H u.u.i.p.    ",
"      l.p.u.u.Q 8.x.x.f.f.} 8.v.v.v.v.v.v.v.v.v.v.v.v.C.v.C.C.C.v.v.v.v.z.z.<.^ 8.s.k.s.8.H ;.;.i.i.    ",
"      l.i.u.u.Q 8.f.x.f.f.q.} 7.x.z.z.z.k.z.z.z.z.z.z.v.z.z.z.z.z.z.k.k.k.:.^ 6.w.s.k.s.7.H -.;.;.i.    ",
"      i.a.;.;.H 8.s.f.s.f.f.q.} 6.k.k.k.k.k.k.k.k.k.k.k.k.k.k.k.k.k.k.3.&.^ 6.w.9.9.9.9.:.A =.-.;.1.    ",
"      i.;.;.;.H :.9.9.9.w.w.w.q.[ &.r.r.r.r.k.k.r.r.k.k.k.k.k.r.r.3.3.&.^ 6.w.w.0.7.9.7.:.A =.=.-.1.    ",
"      i.;.;.;.Q ) <.9.7.7.0.w.w.q.^ %.2.3.3.r.3.3.3.3.3.r.r.r.3.3.>.+.L 6.w.w.7.7.7.7.7.) H $.c -.;.    ",
"      <.;.=.-.Q ~ :.:.:.:.7.0.w.w.e.L $.2.2.2.2.2.2.2.2.2.2.2.>.>.$.L } w.0.7.6.6.6.:.6./ H #.c b -.    ",
"        ;.b -./ H :.>.:.:.:.7.7.0.6.L @.>.>.>.*.>.>.>.>.>.>.>.*.*.#.L e.0.7.6.6.6.6.:.&.H H x x b -.    ",
"        n b b &.H #.:.>.&.:.:.7.7.5.L @.$.*.*.$.$.$.$.$.$.$.$.$.@.@.L } 6.6.5.5.5.5.5.&.A ! x z c       ",
"        -.c x =.H ! #.#.#.#.&.:.&./ F z @.@.@.@.$.@.$.$.$.@.@.@.@.z F [ 5.5.5.5.5.&.&./ A +.z v c       ",
"        =.c x c Q y #.#.#.#.#.&.&.P e z @.@.z @.@.@.@.@.@.@.h h h h F Y 5.5.5.5.5.&.%.L K z w v v       ",
"          c x v &.A j +.@.+.@.+.+.F r z z h h h z h t h h h h h h h r D 4.4.4.4.&.%./ A P f w v         ",
"          c v v x L y z z z +.z J 4 t h h h h h r 3 m 3 8 t h d d d r V [ 4.4.4.%.%.L D h w f l         ",
"          #.v v l &.A t h z h h t 4 d h g d 6 3 M P / P N @ 8 q q q q N T [ 4.4.%.P N P w w f z         ",
"            v l l v ] 4 w h h t r 3 d g 6 + 2 F / %.%.%.P F $ @ 5 7 7 3 L [ 4.T P A L t q q f           ",
"            z l l k @.L 6 t q q q < 5 + # 4 J J +.+.+.P P P K N @ @ + M P / T P K D J , q s h           ",
"              l k k k %.D 6 q q q q 5 < 8 t t J J J J G G G G G F M M K P P T K B P q , , f             ",
"                l s s s P N 1 q q q q q r r r r r r r e G G G G G G G P P P D B P ; ; ; a               ",
"                  s s a a P V < q q q 6 q q q r r r e 8 e e e e G G G G F N V P ; ; ; a q               ",
"                  h a u u a +.Y 3 : 6 6 q q q q r r 9 9 9 9 r 9 e Z Z C m I G ; = ; ; q                 ",
"                    d u i p p f P V @ 1 6 6 6 6 9 6 9 9 9 8 8 8 8 3 2 B U 9 = = & ; 7                   ",
"                        u p > * ; t T I 2 < 1 1 5 5 5 5 5 < < 2 m V U e = % % & ; 7                     ",
"                          a p & & * > t P Y I B m 2 2 m m B V K K 9 = % % % & ;                         ",
"                            q - * * * * * ; 6 9 8 F F G Z 9 0 = . . . % & & 0                           ",
"                                6 > * * * % . . . . . . . . . . . X & & -                               ",
"                                    ; * * & X . . . . . . X X X & & -                                   ",
"                                            o o X X X X X - O                                           ",
"                                                                                                        "
};
