/* XPM */
static char *a72da4148f48404ba7d0cbe33ba4835aNjMoal55R3IuCszz[] = {
/* columns rows colors chars-per-pixel */
"50 63 186 2 ",
"   c #A38556",
".  c #000000",
"X  c #080605",
"o  c #0D0906",
"O  c #07090A",
"+  c #0A0B0C",
"@  c #060709",
"#  c #110C08",
"$  c #161206",
"%  c #0D0F11",
"&  c #0F1114",
"*  c #131415",
"=  c #12161A",
"-  c #15191D",
";  c #1A1C1D",
":  c #24170D",
">  c #27190E",
",  c #2C1D13",
"<  c #2C2016",
"1  c #2B221A",
"2  c #332316",
"3  c #35251A",
"4  c #38271A",
"5  c #37281E",
"6  c #3B2A1D",
"7  c #382517",
"8  c #171C22",
"9  c #191E23",
"0  c #1B2126",
"q  c #1D242B",
"w  c #1F2830",
"e  c #222324",
"r  c #22262A",
"t  c #292A2C",
"y  c #242A2F",
"u  c #342A25",
"i  c #3C2D23",
"p  c #322D2A",
"a  c #3A2F28",
"s  c #37312D",
"d  c #3C332D",
"f  c #232B34",
"g  c #2B2E31",
"h  c #262F39",
"j  c #2D3134",
"k  c #27313B",
"l  c #29333D",
"z  c #313335",
"x  c #3D3530",
"c  c #343639",
"v  c #36393B",
"b  c #3B3C3A",
"n  c #4D2E1C",
"m  c #522C17",
"M  c #4E311D",
"N  c #423316",
"B  c #57321B",
"V  c #5B351D",
"C  c #5D391F",
"Z  c #443223",
"A  c #493626",
"S  c #4C3827",
"D  c #42352C",
"F  c #4E3A29",
"G  c #45382F",
"H  c #543B23",
"J  c #5D3B23",
"K  c #523B2A",
"L  c #573721",
"P  c #433731",
"I  c #433831",
"U  c #643D23",
"Y  c #683F23",
"T  c #5B4617",
"R  c #5A4522",
"E  c #674125",
"W  c #684024",
"Q  c #66462C",
"!  c #6E4529",
"~  c #6D4C2F",
"^  c #714729",
"/  c #754B2B",
"(  c #7A4E2D",
")  c #6A5820",
"_  c #7E502E",
"`  c #735622",
"'  c #7D5231",
"]  c #7A5838",
"[  c #7D6638",
"{  c #2B3641",
"}  c #2D3944",
"|  c #2F3C48",
" . c #313C46",
".. c #313E4B",
"X. c #3B4244",
"o. c #34414E",
"O. c #3C454E",
"+. c #364553",
"@. c #394754",
"#. c #394856",
"$. c #3C4D5C",
"%. c #3E505F",
"&. c #3E4F60",
"*. c #3F5161",
"=. c #45474B",
"-. c #494F55",
";. c #464E57",
":. c #40505F",
">. c #4C535A",
",. c #425465",
"<. c #435769",
"1. c #475A6D",
"2. c #45596C",
"3. c #455A6C",
"4. c #485B6E",
"5. c #5A5D61",
"6. c #485D70",
"7. c #485D71",
"8. c #495E71",
"9. c #4A5F72",
"0. c #495E71",
"q. c #4B6073",
"w. c #4E6276",
"e. c #4C6174",
"r. c #4F657A",
"t. c #50667B",
"y. c #52687E",
"u. c #506477",
"i. c #66696D",
"p. c #686B6F",
"a. c #63666B",
"s. c #6A6D72",
"d. c #75787C",
"f. c #846517",
"g. c #9D7B15",
"h. c #83542F",
"j. c #835735",
"k. c #845936",
"l. c #855D3A",
"z. c #8C5E3A",
"x. c #876C2E",
"c. c #957328",
"v. c #8A613D",
"b. c #896234",
"n. c #93663F",
"m. c #9C693F",
"M. c #977C36",
"N. c #966740",
"B. c #966841",
"V. c #9B6C43",
"C. c #A06E46",
"Z. c #A27247",
"A. c #A67449",
"S. c #AA774C",
"D. c #AA784C",
"F. c #B57E50",
"G. c #C29721",
"H. c #EDBB22",
"J. c #F7D46B",
"K. c #576E85",
"L. c #556D83",
"P. c #586E83",
"I. c #577088",
"U. c #587088",
"Y. c #5B758D",
"T. c #5D768E",
"R. c #5A738B",
"E. c #577087",
"W. c #5D7790",
"Q. c #5D7790",
"!. c #5F7992",
"~. c #5E7992",
"^. c #5E7992",
"/. c #7C7F83",
"(. c #617B94",
"). c #7C8084",
"_. c #83868C",
"`. c #85888D",
"'. c #8A8D92",
"]. c #878A90",
"[. c #8D9095",
"{. c #919499",
"}. c #96999D",
"|. c #94979B",
" X c #9A9DA2",
".X c #9EA1A6",
/* pixels */
"                                                                                                    ",
"                                    * f f l k f k } } } } 8 X                                       ",
"                            - * - ..k 1.7.7.7.7.q.o.,.2.l { ..f q % ;                               ",
"                        * 0 +.e.<.,.+.q 1.7.7.7.7.o.- q } ,.o.,.L.e.$.= %                           ",
"                    O O @.K.T.W.<.@.$.- $.7.7.7.7.4.o.<.7.@.9 e.(.L.@.@.& . *                       ",
"                  f { 9 $.~.~.e.r 4.T.o.} 7.1.1.7.7.7.$.*.f h ~.<.r ..R.$.+.j e                     ",
"                8 $.q.$.+.Y.~.K.,.} E.e.9 @.f q $.,.1. .....t.W.t.1.R.~.~.K.o...f                   ",
"              } ,.7.7.7.} $.W.~.T.K.W.T.o.+ q l q 0  .%.q $.~.W.~.K.L.R.y.f ..7.$.-                 ",
"            9 ,.7.7.7.7.@.8 7.e.......L.T.k +.7.1...$.$.+.Y.T.Y.,...o.- 8 f #.,.7.f X *             ",
"          - $.7.7.7.7.7.<.h 9 { +.+.@.7.L...0 &.*.<.q.+.1.~.7.h o.7.q . 8 ,.,.2.7.l 9 f             ",
"        X { 7.7.7.7.4.-.D , 7 6 u i D i 3 3 7 6 , G g = q f 0 = 0 f 9 8 @.7.,.2.7.<.,.$.-           ",
"      * 8 f 1.7.7.2.=.Q Y B ( _ U Y _ / V ! _ ^ m ! L o . . . . . . . O 0 $.} $.7.7.7.%.*           ",
"      & ,.$.f $.7.O.J ( Y E V.Z.( ' Z.B.^ v.Z.n.W n.D.Q X . . . . . . . . = f $.7.7.2. .f -         ",
"    + } $.L.o.q $.D / h.( ^ A.D.' j.D.Z./ B.D.V.^ V.F.B.: . . . . . . . . . & $.7.*.0 y ..o.        ",
"    - L.e.$.K.l e n / m.z.^ A.S.' j.D.Z./ N.S.B.^ V.F.B.M o . . . . . . . . . q ,.q f  .<.R.}       ",
"     .Y.W.q.R.y.d B ' D.z.^ A.S.' j.S.Z./ N.S.V.^ V.F.N.! < . . . . . . . . . X 0 k K.e.R.T.l       ",
"  * ,.~.R.y.~.t.K V v.F.z.^ A.S.' j.D.Z./ N.S.V.^ V.F.N.^ A . . . . . . . . . . + e.~.!.~.~.4.t     ",
"  f R.~.e.} &.;.L J V.F.z.^ A.S.' j.D.Z./ N.S.V.^ V.F.N./ ] X . . . . . . . . . O <.L.$.*.R.t.*     ",
"  f R.Y.Y.L.+.b Y U Z.F.z.^ A.S.' j.D.Z./ N.S.B.^ V.F.N./ v.# . . . . . . . . . . - ....+.L.L.f     ",
"  + 9 0 0 0 8 2 W ! A.F.z.^ A.S.' j.D.Z./ N.S.V.! V.F.N./ v.# . . . . . . . . . . . O 0 0 9 9 *     ",
"; 8 8 . . . - 3 W ! A.F.z.^ A.S.' j.D.Z./ N.S.V.^ V.F.N./ v.# . . . . . . . . . . % 0 0 0 0 0 9 &   ",
"; k k q } } $.P Y ! A.F.z.^ A.S.' j.D.Z./ N.S.B.! V.F.N./ v.# . . . . . . . . . . l e.| | | +.r.q   ",
"* O { t.~.R.+.6 W ! A.F.z.^ A.S.' j.D.Z./ N.S.B.! V.F.N./ v.# . . . . . . . . . . h l } ,.$.r 0 %   ",
"e <.R.~.W.~.y.d W ! A.F.z.^ A.S.' j.D.Z./ N.S.B.! V.F.N./ v.# . . . . . . . . . . l P.R.~.~.7.9 +   ",
"r e.~.W.W.~.I.I Y ! A.F.z.^ A.S.' j.D.Z./ N.S.B.! V.F.N./ v.# . . . . . . . . . . l (.~.W.W.~.L.q   ",
"e 4.R.R.R.R.L.D Y ! A.F.z.^ A.S.' j.D.Z./ N.S.V.^ V.F.N./ v.# . . . . . . . . . . k R.R.R.R.R.y.q   ",
"- = - - - - = 2 W ! S.F.z.^ A.D.' k.D.Z./ B.D.V.^ V.F.B./ v.# . . . . . . . . . . + - - - - - = +   ",
"- 8 0 q @ = 8 < V J N.V.' U n.B.! / B.v.E k.B.l.U l.C.k.U ] o . . . . . . . . . . % 0 q = - 0 9 +   ",
"0 $.e.:.} l +.t p p d x s p d d p p d d p s d s p s x s p p X . . . . . . . . . . w 1...9 k 4.,.8   ",
"0 $.$.0 *.,.$.-._.}.[._._. X]._.{. X_._.}.[._.`.}.'._._..Xd.+ . . . . . . . . . . q k } o.8 #.<.8   ",
"0 $.l 9 ,.7.<.-.].{.}.[.'. X{.[.{.}.[.[.[.{.[.'.[.{.[.'. X/.% . . . . . . . . . . q ,.1.q...k ,.8   ",
"0 $.,.{ ,.7.<.X.p.i.s.s.p.i.s.s.i.i.s.s.i.i.s.p.i.s.s.p.p.5.+ . . . . . . . . . . w 7.q.,.$.} ,.8   ",
"e $.q.7.7.7.2.e 2 3 F K Z 4 F F 6 6 K S 6 A F A 3 A K A 4 Z X . . . . . . . . . . f 7.q.,.2.q.<.8   ",
"9 } +.+.+.+.o.i W ! A.F.z.^ A.D.' j.D.Z./ B.D.V.^ V.F.N./ v.# . . . . . . . . . . 8 +.+.+.+.+...=   ",
"; f } } } } l i W ! A.F.z.^ A.S.' j.D.Z./ N.S.V.^ V.F.B./ v.# . . . . . . . . . . - } } } } } l *   ",
"r 4.t.4.~.~.I.I Y ! A.F.z.^ A.S.' j.D.Z./ N.S.V.^ V.F.] H l.# . . . . . . . . . . l ~.~.R.K.R.K.q   ",
"0 k } t.(.(.I.P Y ! A.F.z.^ A.S.' j.D.Z./ N.S.V.! V.D.c.M.] # . . . . . . . . . . l ~.~.,.f } ,.8   ",
"r 4.R.W.W.~.I.P Y ! A.F.z.^ A.S.' j.D.Z./ N.S.V.^ V.B.G.J.[ X . . . . . . . . . . l ~.W.R.K.t.{ &   ",
"r e.~.W.W.W.I.P Y ! A.F.z.^ A.S.' j.D.Z./ N.S.B.^ B.R g.H.) X . . . . . . . . . . l ~.W.W.W.~.K.q   ",
"r e.(.~.~.~.R.I Y ! A.F.z.^ A.S.' j.D.Z./ N.S.B.^ B.` ` c.x.$ . . . . . . . . . . l ~.~.~.~.~.K.q   ",
"0 o.,.,.,.,.$.i W ! A.F.z.^ A.S.' j.D.Z./ N.S.V.^ V.b.T N R X . . . . . . . . . . q ,.,.,.,.,.$.-   ",
"; f l k k k h 5 W ! A.F.z.^ A.S.' j.D.Z./ N.S.B.! V.A.f.f.H o . . . . . . . . . . = k k k k k f &   ",
"e $.7.7.7.7.2.d W ! A.F.z.^ A.S.' j.D.Z./ N.S.B.^ V.F.~ M l.# . . . . . . . . . . f 7.7.7.7.7.<.8   ",
"; ..7.7.7.7.<.d W ! A.F.z.^ A.S.' j.D.Z./ N.S.B.^ V.F.B./ v.# . . . . . . . . . . w 7.7.7.7.7.<.8   ",
"; f l $.,.| ,.d W ! A.F.z.^ A.S.' j.D.Z./ N.S.B.^ V.F.N.^ v.# . . . . . . . . . . w e.e.4.4.4.{ &   ",
"c @...} k o.,.d W ! A.F.z.^ A.S.' j.D.Z./ N.S.B.^ V.F.N.^ v.# . . . . . . . . . . w e.7.f f $...*   ",
"b ,.q.,.,.7.<.d W ! A.F.z.^ A.S.' j.D.Z./ N.S.B.^ V.F.N.^ v.# . . . . . . . . . . w 7.4.,.*.2.<.8   ",
"j %.7.7.7.7.<.d W ! A.F.z.^ A.S.' j.D.Z./ N.S.B.^ V.F.N.^ v.# . . . . . . . . . . w 7.7.7.7.7.,.8   ",
"; q f f f f f 5 W ! A.F.z.^ A.D.' j.D.Z./ B.D.V.^ V.F.B./ v.# . . . . . . . . . . = f f f f f f &   ",
"c :.7.7.7.7.<.a C U B.Z.' U B.V.^ / V.N.! l.V.v.U v.A.z.W ] o . . . . . . . . . . - <.7.7.7.7.,.8   ",
"X.y.(.(.(.~.R.g p p d x s p d d p p d d p d d d p d x d p p O . . . . . . . . . . 0 t.!.y.R.~.K.q   ",
"v } #.4.L.~.K.>._.}.[._._. X`._.{. X_._.{.{._._.}.'._.`. X).- . . . . . . . . . X j r.~.e.y.Y.L.q   ",
"c $.<.,.R.~.K.>.'.}.{.[.'.}.[.[.{..X[.'.{. X[.'.{.{.[.'. X_.; . . . . . . . . . X j r.~.R.{ { $.&   ",
"v t.~.Y.W.W.K.=.s.s.s.s.s.s.s.s.s.s.s.s.s.s.s.s.i.s.s.s.s.a.* . . . . . . . . . . ; t.~.W.<.<.t.0   ",
"v u.T.T.T.T.K.t 2 3 A F i 3 A A 6 6 S A 3 Z A Z 3 Z K Z 3 i X . . . . . . . . . . f R.T.T.T.T.L.q   ",
"z f k h h h f 5 W ! A.F.z.^ A.S.' j.D.Z./ N.S.B.! V.F.n.^ v.# . . . . . . . . . . = k h h h k f &   ",
"z +.$.$.$.$.@.i W ! A.F.z.^ A.S.' j.D.Z./ N.S.V.^ V.F.N./ v.# . . . . . . . . . . 0 $.$.$.$.$.@.-   ",
"c ,.7.$.@.e.<.d W ! A.F.z.^ A.S.' j.D.Z./ N.S.V.^ V.F.N.^ v.# . . . . . . . . . . w 7.7.$.<.7.<.8   ",
"c :.7.{ o.$.*.d W ! A.F.z.^ A.S.' j.D.Z./ N.S.B.^ V.F.N.^ v.# . . . . . . . . . . f 7.2. .} 1.,.8   ",
"r $.,...4.,.4.D W ! A.F.z.^ A.S.' j.D.Z./ N.S.B.^ V.F.N.^ v.# . . . . . . . . . . q ,.$.,.f $.<.8   ",
"0 $.7.1.7.7.2.d W ! A.F.z.^ A.D.' j.D.Z./ B.D.V.^ V.F.B./ v.# . . . . . . . . . X 9 ,.4.7.4.e.<.8   ",
"; q f f f f f 5 E U V.A.j.W B.V./ ' V.B.! z.V.v.E v.A.z.W ] o . . . . . . . . . 1 e f f f f f f &   ",
"                  , 3 6 , : 3 3 , , 4 7 > 2 3 2 : 2 6 2 > < X . . . . . . . .                       "
};
