/* XPM */
static char *b18874e631724142d07bb3f76f3016e4W29fPSaO0e5mcdUz[] = {
/* columns rows colors chars-per-pixel */
"50 63 195 2 ",
"   c #A38556",
".  c #030202",
"X  c #0A0B0C",
"o  c #060709",
"O  c #0D0F11",
"+  c #0F1114",
"@  c #131415",
"#  c #12161A",
"$  c #15191D",
"%  c #1B1C1E",
"&  c #1A120A",
"*  c #2B1F16",
"=  c #241E1A",
"-  c #2A221C",
";  c #33241B",
":  c #3A2519",
">  c #161C22",
",  c #181E24",
"<  c #1C2126",
"1  c #1D242B",
"2  c #222325",
"3  c #2C2623",
"4  c #2D2825",
"5  c #22262A",
"6  c #2B2B2C",
"7  c #262B2E",
"8  c #332A24",
"9  c #352E29",
"0  c #392E28",
"q  c #3C322C",
"w  c #232C34",
"e  c #2A2E34",
"r  c #262F39",
"t  c #2C3136",
"y  c #27313B",
"u  c #29333C",
"i  c #323334",
"p  c #343639",
"a  c #35393C",
"s  c #3C3C3C",
"d  c #383637",
"f  c #432414",
"g  c #4B2A16",
"h  c #442B1A",
"j  c #4A2E1A",
"k  c #532F1A",
"l  c #493617",
"z  c #55321C",
"x  c #5E361E",
"c  c #60371E",
"v  c #412D20",
"b  c #453223",
"n  c #4D3928",
"m  c #4A3727",
"M  c #5C3A22",
"N  c #533D2B",
"B  c #533721",
"V  c #413F3E",
"C  c #423A33",
"Z  c #633C23",
"A  c #6A3F24",
"S  c #554211",
"D  c #684F18",
"F  c #765B13",
"G  c #6D5415",
"H  c #5D412B",
"J  c #5B4825",
"K  c #42403F",
"L  c #6C4326",
"P  c #634329",
"I  c #6B472A",
"U  c #66492E",
"Y  c #6A4B2F",
"T  c #654125",
"R  c #704729",
"E  c #74492B",
"W  c #7A4C2B",
"Q  c #6B522A",
"!  c #795828",
"~  c #6C4D32",
"^  c #654A34",
"/  c #724F33",
"(  c #745134",
")  c #7C5231",
"_  c #7F5938",
"`  c #775738",
"'  c #6A513A",
"]  c #2B3642",
"[  c #2D3944",
"{  c #2F3C48",
"}  c #323C45",
"|  c #313E4B",
" . c #34414E",
".. c #3B4146",
"X. c #364553",
"o. c #394653",
"O. c #394856",
"+. c #3C4C5C",
"@. c #3E505F",
"#. c #3F5161",
"$. c #414546",
"%. c #43474B",
"&. c #44484C",
"*. c #464C53",
"=. c #40505F",
"-. c #4E5256",
";. c #535457",
":. c #545559",
">. c #57585B",
",. c #58595C",
"<. c #4E4F4B",
"1. c #425465",
"2. c #435769",
"3. c #465A6C",
"4. c #465A6C",
"5. c #485C6E",
"6. c #475D70",
"7. c #485D70",
"8. c #495E71",
"9. c #495F72",
"0. c #495E71",
"q. c #4C6175",
"w. c #4F657A",
"e. c #50667B",
"r. c #52697E",
"t. c #506477",
"y. c #66696E",
"u. c #686B6F",
"i. c #63666A",
"p. c #696D71",
"a. c #75787D",
"s. c #9D7B1B",
"d. c #835734",
"f. c #845936",
"g. c #835C3A",
"h. c #8A5D39",
"j. c #895936",
"k. c #80512D",
"l. c #8D603C",
"z. c #846533",
"x. c #91633D",
"c. c #9A7B33",
"v. c #815F42",
"b. c #8A6849",
"n. c #936740",
"m. c #946841",
"M. c #9B6C44",
"N. c #916F4F",
"B. c #9F7147",
"V. c #937A40",
"C. c #947150",
"Z. c #9C7756",
"A. c #A07147",
"S. c #A37348",
"D. c #A8764B",
"F. c #AE7A4E",
"G. c #B17B4E",
"H. c #A37B58",
"J. c #B47D51",
"K. c #A06E45",
"L. c #A58118",
"P. c #B2943B",
"I. c #D4A414",
"U. c #C59B22",
"Y. c #F8C01A",
"T. c #B98052",
"R. c #FFD659",
"E. c #E3C66E",
"W. c #556D83",
"Q. c #586F85",
"!. c #577088",
"~. c #5A738B",
"^. c #577087",
"/. c #5D7790",
"(. c #5E7892",
"). c #5E7992",
"_. c #7C7F83",
"`. c #617B94",
"'. c #7F8287",
"]. c #818489",
"[. c #86898E",
"{. c #888B8F",
"}. c #8A8E93",
"|. c #878A90",
" X c #8D9096",
".X c #92959A",
"XX c #96999D",
"oX c #989B9F",
"OX c #9A9DA1",
"+X c #9EA1A6",
"@X c #A5A8AD",
"#X c #A9ACB1",
"$X c #AEB1B5",
"%X c #B3B5B9",
"&X c #B8BABE",
/* pixels */
"                                                                                                    ",
"                                    @ w w u y w y [ [ [ [ > o                                       ",
"                            $ @ $ | y 3.7.7.7.7.q. .1.4.u ] | w 1 O $                               ",
"                        @ < X.q.2.1.X.1 4.7.7.7.7. .$ 1 [ 1. .1.W.q.+.# O                           ",
"                    X X X.W.~./.2.o.+.$ +.7.7.7.7.5. .2.7.X., q.`.W.o.o.+ . @                       ",
"                  w ] , +.(.(.q.5 5.~. .[ 7.4.4.7.7.7.+.#.w r (.2.5 | ~.+.X.t 2                     ",
"                > +.q.+.X.~.(.Q.1.[ ^.q., X.w 1 +.1.3.} | | e./.e.4.~.(.(.W. .| w                   ",
"              [ 1.7.7.7.[ +./.(.~.W./.~. .X 1 u 1 < } @.1 +.(./.(.W.W.(.W.w | 7.+.$                 ",
"            , 1.7.7.7.7.X.> 7.q.{ | | r.~.y X.7.4.{ +.+.X.~.~.~.1.| r.~.y w O.1.7.w o @             ",
"          $ +.7.7.7.7.7.7.[ 5 X.1.1.1.W.(.+.w 4.5.7.q.X.4.(.5.r  .q.(.+.< 1.1.4.7.u , w             ",
"        o ] 7.7.7.7.7.7.5. .3 2 e t t t e 5 @ 5 5 5 5 % 6 t 6 % 5 e *...X.7.1.4.7.2.1.+.$           ",
"      @ > w 4.7.7.7.5.+.<.b P g f M T Z M f z Z L Z k f M Z L M f g P b i +.[ +.7.7.7.@.@           ",
"      + 1.+.w +.7.7.+.3 I W E z x h.x.l.d.z ) h.x.h.R Z h.h.x.f.x L h.x.d.C e +.7.7.4.} w $         ",
"    X [ +.W. .1 1.X.8 P W k.W Z A A.F.D.M.x l.S.G.S.d.R A.S.G.M.L ) A.G.T.l.9 +.7.#.< 7 |  .        ",
"    $ W.q.+.W.u u 6 f E W x.M.E L B.F.D.M.x l.S.G.S.d.R A.S.F.M.L ) A.G.T.M.z d 1.1 w } 2.~.[       ",
"    } ~./.q.~.W.o.v k R j.G.A.E A B.F.D.M.x l.S.G.S.d.L A.S.F.M.L ) A.G.T.M.c ^ 7 r W.q.~.~.u       ",
"  @ 1.(.~.r.(.W.s x k E A.T.A.E A B.F.D.M.x l.S.G.S.d.L A.S.F.M.L ) A.G.T.M.x g.8 7.(.).(.(.5.6     ",
"  w ~.(.q.[ #.+.: Z k f.F.T.A.E A B.F.D.M.x l.S.G.S.d.L A.S.F.M.L ) A.G.T.M.x l.' 5.W.+.#.~.e.@     ",
"  w ~.~.~.W.X.t Z Z z m.G.T.A.E A B.F.D.M.x l.S.G.S.d.L A.S.F.M.L ) A.G.T.M.x x.b.6 [ | X.W.W.w     ",
"  X , < < < , * I Z Z M.F.T.A.E L B.F.D.M.x l.S.G.S.d.L A.S.F.M.L ) A.G.T.M.x x.m.& o < < , , @     ",
"% > > . . . $ - E Z A B.F.T.A.E A B.F.D.M.x l.S.G.S.f.L A.S.G.B.L ) A.G.T.M.x x.m.- , < < < < , +   ",
"% y y 1 [ [ +.q R Z A B.F.T.A.E A B.F.D.M.x l.S.G.S.f.L A.S.F.M.L ) A.G.T.M.x x.m.&.q.{ { { X.w.1   ",
"@ X ] e.(.~.X.; E Z A B.F.T.A.E A B.F.D.M.x l.S.G.S.d.L A.S.F.M.L ) A.G.T.M.x x.m.$.u [ 1.+.5 < O   ",
"2 2.~.(./.(.r.0 R Z A B.F.T.A.E A B.F.D.M.x l.S.G.S.d.L A.S.F.M.L ) A.G.T.M.x x.m.&.W.~.(.(.7., X   ",
"5 q.(././.(.!.q R Z A B.F.T.A.E L B.F.D.M.x l.S.G.S.d.L A.S.F.M.L ) A.G.T.M.x x.m.&.(.(././.(.W.1   ",
"2 5.~.~.~.~.W.q R Z A B.F.J.A.E A B.F.D.M.x l.S.G.S.d.L A.S.F.M.L ) A.G.T.M.x x.m.$.!.~.~.~.~.r.1   ",
"$ # $ $ $ $ # * E Z A A.F.T.A.E L A.F.D.M.x l.S.G.S.d.L A.S.G.M.L ) A.G.T.M.x x.m.= # $ $ $ $ # X   ",
"$ > < 1 o # , * L x M n.A.D.m.L Z n.M.M.l.z d.m.A.m.) Z n.m.S.x.Z E m.S.D.l.z f.l.- , 1 # $ < , X   ",
"< +.q.=.[ u X.5 8 4 3 q q q q 8 3 q q q q 3 9 q q q 9 4 q q q q 4 8 q q q q 3 9 9 t 4.| , y 5.1.>   ",
"< +.+.< #.1.+.%.'._.XX.X].].'.].+X[.].].].OXXX].].].|.OX[.].].].}.oX].].]._.OX.Xa.} y [  .> O.2.>   ",
"< +.u , 1.7.2.&.}.[.XX+X X X}.{.@X.X X X}.OXOX X X X}.oX.X X X}.[.+X X X X[.OX+X]...1.4.q.| y 1.>   ",
"< +.1.] 1.7.2.} p.p.y.p.p.p.p.u.u.p.p.p.p.y.y.p.p.p.y.i.p.p.p.p.i.u.p.p.p.p.y.p.i.} 6.q.1.+.[ 1.>   ",
"2 +.q.7.7.7.4.2 : ; ; n N H n : ; n N N m ; b n N n v : n n N n ; : n N H m ; b b t 7.q.1.4.q.2.>   ",
", [ X.X.X.X. .8 E Z A A.F.T.A.E L A.F.D.M.x l.S.G.S.d.L A.S.G.B.L ) A.G.T.M.x x.m.i X.X.X.X.X.| #   ",
"% w [ [ [ [ u ; E Z A B.F.T.B.E A B.F.D.M.x l.S.G.S.d.L A.S.F.M.L ) A.G.T.M.x x.m.6 ] [ [ [ [ u @   ",
"5 5.e.5.(.(.!.q R Z A B.F.T.A.E L B.F.D.M.x l.S.G.S.d.L A.S.F.M.L ) A.G.J.~ h ( n.&./.(.~.W.~.W.1   ",
"< y [ e.`.`.!.q R Z A B.F.T.A.E A B.F.D.M.x l.S.G.S.d.L A.S.F.M.L ) A.G.S.s.P.V.g.&./.(.1.w [ 1.>   ",
"5 5.~././.(.!.q R Z A B.F.T.A.E A B.F.D.M.x l.S.G.S.d.L A.S.F.M.L ) A.M.` I.R.E.Q .././.~.W.e.] +   ",
"5 q.(./././.!.q R Z A B.F.T.A.E L B.F.D.M.x l.S.G.S.d.L A.S.F.M.L ) S.Y l L.Y.U.J $././././.(.W.1   ",
"5 q.`.(.(.(.~.q R Z A B.F.T.A.E A B.F.D.M.x l.S.G.S.d.L A.S.F.M.L ) S.) G Q ! z.c.<.(.(.(.(.(.W.1   ",
"<  .1.1.1.1.+.9 I M A B.F.T.A.E L B.F.D.M.x l.S.G.S.d.L A.S.F.M.L ) A.A.! D S l J e 1.1.1.1.1.+.$   ",
"% w u y y y r ; E Z A B.F.J.B.E A B.F.D.M.x l.S.G.S.d.L A.S.F.M.L ) A.G.M.G F D U 4 y y y y y w +   ",
"2 +.7.7.7.7.4.0 R Z A B.F.T.B.E A B.F.D.M.x l.S.G.S.f.R A.S.F.M.L ) A.G.J.( f ` m.s 7.7.7.7.7.2.>   ",
"% | 7.7.7.7.2.0 I M A B.F.T.A.E L B.F.D.M.x l.S.G.S.f.R A.S.F.M.L ) A.G.T.M.c x.m.s 6.7.7.7.7.2.>   ",
"% w u +.1.{ 1.0 R Z A B.F.T.A.E A B.F.D.M.x l.S.G.S.d.L A.S.F.M.L ) A.G.T.M.x x.m.s q.q.5.5.5.] +   ",
"p o.| [ y  .1.0 R Z A B.F.T.A.E A B.F.D.M.x l.S.G.S.d.L A.S.F.M.L ) A.G.T.M.x x.m.s q.7.w w +.| @   ",
"s 1.q.1.#.7.2.0 R Z A B.F.T.A.E L B.F.D.M.x l.S.G.S.d.L A.S.F.M.L ) A.G.T.M.x x.m.s 6.5.1.#.4.2.>   ",
"t @.7.7.7.7.2.0 R Z A B.F.T.A.E A B.F.D.M.x l.S.G.S.d.L A.S.F.M.L ) A.G.T.M.x x.m.s 6.7.7.7.7.1.>   ",
"% 1 w w w w w ; E Z A S.G.T.S.E L S.F.D.M.c l.S.G.S.f.R S.S.J.A.L ) S.J.T.M.c x.m.4 w w w w w w +   ",
"p =.7.7.7.7.2.3 j : h U / ( U j h U ~ ~ P : M ~ / Y B j U Y / U j B U ( ( P : H H 5 1.7.7.7.7.2.>   ",
"..r.`.`.`.(.~.a ;.;.>.>.;.;.;.>.,.>.;.;.;.,.>.;.;.;.;.,.>.;.;.;.>.>.;.;.;.;.>.>.;.p w.).r.~.`.W.1   ",
"a [ O.5.W.(.W.*.}.[.#X#X X X}..X&X.X X X X%X%X X X X X%XOX X X}.XX$X X X X}.$X@X}.-.q.(.q.r.~.W.1   ",
"p +.2.1.~.(.W.*.}.}.[.}.}.}.}.].|.}.}.}.}.[. X}.}.}.].}. X}.}.}._.}.}.}.}.|.[.}.}.-.q.(.~.] ] +.+   ",
"a e.(.~././.!.t s s s V V K V s s V V V V s s V V V s s V V V V s s V V K V s V s 6 w.(./.2.2.e.<   ",
"a t.~.~.~.~.W.9 x j z _ l.n._ M z _ l.g.` g E g.l.g.I x _ g.l._ z T _ l.n.` g / ( a ~.~.~.~.~.W.1   ",
"i w y r r r w ; E Z A S.G.T.S.E L A.F.D.M.c l.S.G.S.f.R A.S.G.B.L ) S.G.T.M.c x.m.4 r r r r y w +   ",
"i X.+.+.+.+.X.8 R Z A B.F.T.A.E L B.F.D.M.x l.S.G.S.d.L A.S.F.B.L ) A.G.T.M.x x.m.i +.+.+.+.+.X.$   ",
"p 1.7.+.o.q.2.0 R Z A B.F.T.A.E L B.F.D.M.x l.S.G.S.d.L A.S.G.M.L ) A.G.T.M.x x.m.s 7.7.+.2.7.2.>   ",
"p =.7.]  .+.#.0 R Z A B.F.T.A.E A B.F.D.M.x l.S.G.S.d.L A.S.F.M.L ) A.G.T.M.x x.m.s 6.4.} [ 4.1.>   ",
"5 +.1.| 5.1.5.q R Z A B.F.T.A.E A B.F.D.M.x l.S.G.S.d.L A.S.F.M.L ) A.G.T.M.x x.m.d 1.+.1.w +.2.>   ",
"< +.7.4.7.7.4.0 R M A B.G.T.A.E A A.F.D.M.x l.S.G.S.d.L A.S.G.M.L ) A.G.T.M.x x.m.4 1.5.7.5.q.2.>   ",
"% 1 w w w w w - I M H N.Z.H.N.Y P N.Z.C.b.M v.C.H.C.` P N.C.Z.N.P ( N.H.H.b.M b.b.3 w w w w w w +   ",
"                                                                                                    "
};
