/* XPM */
static char *c00f0ce9e89e473b8a5da37b5ecf8e397pIaY5nYpH6mAMb8[] = {
/* columns rows colors chars-per-pixel */
"50 50 172 2 ",
"   c #9F8252",
".  c #A38556",
"X  c #A58857",
"o  c #A48758",
"O  c #A6895A",
"+  c #A98C5D",
"@  c #A98D5D",
"#  c #A98C5C",
"$  c #AA8C5C",
"%  c #AA8D5C",
"&  c #AB8D5C",
"*  c #AA8C5D",
"=  c #AA8D5D",
"-  c #AB8D5D",
";  c #AB8E5D",
":  c #A98C5E",
">  c #A98D5E",
",  c #A88C5F",
"<  c #A98C5F",
"1  c #A98D5F",
"2  c #AA8C5E",
"3  c #AA8D5E",
"4  c #AB8D5E",
"5  c #AA8D5F",
"6  c #AB8D5F",
"7  c #AA8E5E",
"8  c #AB8E5E",
"9  c #AA8E5F",
"0  c #AB8E5F",
"q  c #AB8F5F",
"w  c #AC8E5E",
"e  c #AC8F5E",
"r  c #AC8E5F",
"t  c #AC8F5F",
"y  c #AD8F5F",
"u  c #A98C5C",
"i  c #AE905F",
"p  c #A38961",
"a  c #AB8E60",
"s  c #AB8F60",
"d  c #AA8E61",
"f  c #AB8F61",
"g  c #AA8F62",
"h  c #AB8F62",
"j  c #AB8F63",
"k  c #AC8E60",
"l  c #AC8F60",
"z  c #AD8F60",
"x  c #AC8E61",
"c  c #AC8F61",
"v  c #AD8F61",
"b  c #AE8F60",
"n  c #AE8F61",
"m  c #AC8F60",
"M  c #A88F68",
"N  c #AC9060",
"B  c #AD9060",
"V  c #AD9160",
"C  c #AC9061",
"Z  c #AD9061",
"A  c #AE9061",
"S  c #AE9161",
"D  c #AF9161",
"F  c #AF9261",
"G  c #AC9062",
"H  c #AD9062",
"J  c #AD9162",
"K  c #AD9063",
"L  c #AC9163",
"P  c #AD9163",
"I  c #AE9062",
"U  c #AE9162",
"Y  c #AF9162",
"T  c #AE9163",
"R  c #AF9163",
"E  c #AE9262",
"W  c #AF9262",
"Q  c #AF9263",
"!  c #AD9165",
"~  c #AD9265",
"^  c #AE9264",
"/  c #AF9264",
"(  c #AF9364",
")  c #AF9265",
"_  c #AF9365",
"`  c #AE9266",
"'  c #AE9267",
"]  c #AF9467",
"[  c #AE9162",
"{  c #AF9368",
"}  c #B09262",
"|  c #B09263",
" . c #B09363",
".. c #B19363",
"X. c #B09463",
"o. c #B09264",
"O. c #B09364",
"+. c #B19364",
"@. c #B09265",
"#. c #B09365",
"$. c #B19365",
"%. c #B09366",
"&. c #B09464",
"*. c #B19464",
"=. c #B09465",
"-. c #B19465",
";. c #B09466",
":. c #B19466",
">. c #B19566",
",. c #B09467",
"<. c #B19467",
"1. c #B19567",
"2. c #B29466",
"3. c #B29566",
"4. c #B29567",
"5. c #B39567",
"6. c #B29667",
"7. c #B39667",
"8. c #B19465",
"9. c #B19568",
"0. c #B29568",
"q. c #B39668",
"w. c #B29669",
"e. c #B39669",
"r. c #B3966A",
"t. c #B3976A",
"y. c #B49668",
"u. c #B49768",
"i. c #B49669",
"p. c #B49769",
"a. c #B4976A",
"s. c #B4976B",
"d. c #B2976C",
"f. c #B4976C",
"g. c #B39669",
"h. c #B3986A",
"j. c #B59869",
"k. c #B4986A",
"l. c #B4986B",
"z. c #B5996B",
"x. c #B5986C",
"c. c #B4996C",
"v. c #B4996D",
"b. c #B79A6D",
"n. c #B5996E",
"m. c #B5996F",
"M. c #B79A6E",
"N. c #B69A6F",
"B. c #B5996C",
"V. c #B89A6B",
"C. c #B89B6E",
"Z. c #B89C6F",
"A. c #B69B71",
"S. c #B79B71",
"D. c #B79C71",
"F. c #B69D76",
"G. c #B89C71",
"H. c #B99C71",
"J. c #B99D71",
"K. c #BA9D71",
"L. c #BA9E71",
"P. c #B89C72",
"I. c #B99D73",
"U. c #BA9E72",
"Y. c #BA9F74",
"T. c #B99E76",
"R. c #BA9F76",
"E. c #BA9E75",
"W. c #BBA177",
"Q. c #BEA47C",
"!. c #C0A679",
"~. c #C4AB85",
/* pixels */
"4 Y w # o O v 4 a 4.O o . . O O # 4 v O.Y w Y Y 4 4 ` h.` 4.4 o X w w 4 # X o o o o . . . . O X O O ",
"# v 4 O O 4 4 + l.4 O 4 4 O O # O O w Y Y 4 v w 4 # 4 v 4 4 4 O . O $ # O . o . o O o . . . . X # # ",
"v v 4 4 4 w 4 ` c.4 O.4.4.v O # # # Y w 4 4 Y 4 O o O 4 # O 4 O . o . o o O O o o O o o . O O 4 O 4 ",
"4.4.Y 4 # O 4 4 a Y O.| Y w # 4 w Y Y 4 # # O o . . . O O O 4 X . . . o O O O o O O . . . X . 4 4 ` ",
"O.4.O.Y 4 O X O o O a v w w O 4 4 4 4 4 4 O . . . . . O 4 O # # o o O # O . . 4 v 4 O o o . . o 4 Y ",
"Y v Y v # . o O # 4 4 O # # O O O O # # O o o # O X O # 4 O 4 # o 4 4 4 # O 4 ` 4.Y 4 O O . . o 4 w ",
"O.O.Y a + o O 4 w 4 # O # O O O 4 Y Y w O o 4 Y O.| 4.Y 4 w Y w 4 | w O O # Y 4.4.4.` 4 + .   O $ v ",
"O.O.` v # O # 4 # o o O # 4 w 4 | i.0.Y 4 4 v O.4.l.c.0.Y 4.4.i.i.4.4.# O O v 4.Y w Y ] + . . O 4 Y ",
"v Y 4 # O O 4 O . . . . O v Y Y O.4.` a O # a Y Y 4.i.i.` O.4.O.Y v # o o O Y 4.4 4 4 , O 4 Y 0.0.Y ",
"Y 4 O # 4 O O o . o . . O 4 Y v Y v Y Y 4 v ` w Y O.v Y Y 4 4 O O O . . o o O Y w 4 + + a Y D.I.4.Y ",
"Y 4 # # # O . O O O O . O 4 # O 4 4 Y v v 4.Y v 4 4 4 4 4 O O o X O . . o O O 4 w # # O + 4.I.l.4.O.",
"w # 4 # O # O o 4 w $ $ 4 o o # # v O.w a 4.Y # # . O 4 w w # O O o . . O 4 O 4 4 # # . a R.S.4.4.Y ",
"# O O o o # O o 4 4 w O.4 O 4 4 # Y ` 4 Y Y Y O # o . O Y O # O O o O 4 w w O # # O O . + R.d.4.O.w ",
"O . 4 O . O o . O o O Y Y 4 4 4 4 4 4 v 4.4 4 4 . o o . o # O . . . 4 Y Y Y 4 4 v # O o . ` 4.Y Y 4 ",
"o . Y O . # o . # . . O 4 O O w 4 w Y | 4 $ o . . O o . o O o . . o w Y Y Y 4.` ` a O o . ` i.4 $ O ",
"o O O 4 # # O O O O O O O O # 4 w v O.i.w o . . o . . o O o o O O # v 4 O | O.O.` 4 . O   O.V.w O o ",
"O X O # # # 4 4 # O O v Y 4 4 O 4 4 # 4 v 4 # O O . . . O o . o O 4 v 4 4 4 a 4 O o . O . 4.l.4 O # ",
"w w Y ` v v Y w 4 o o Y w # # 4 4 4 O . o # O # O O o . o o . . o 4 w 4 4 # O O # o . ` c.l.4.4 # w ",
"Y Y Y Y Y Y v v 4 O Y Y $ O O # 4 4 # o . . . . O 4 # O o o o . o o o 4 $ o o O o   ` I.c.i.4.4.Y Y ",
"Y Y Y Y Y 4 4 4 # ` 4.O.O O O 4 4 O # O o O O o O # # O o o o o O # O # 4 4 # . c.R.I.C.i.i.i.4.4.Y ",
"4 4 4 Y Y i.I.i.4.0.O.4 O O # 4 $ # # # o O # 4 4 O o O o o # o . O 4 O 4 | 4 # Y i.4.O.4.0.0.` 4 4 ",
"O O a v O.I.I.c.c.4.Y # o o O 4 4 O O # 4 4 w w # O X o X # 4 # O # 4 4 4 4 O o 4 4 4 Y Y ` ` + O # ",
". O v a 0.I.I.c.0.` a o O O O 4 v O . . O 4 O 4 4 4 O o o o o X # Y 4.4 4 4 O O v w 4 4 4 4 4 O 4 O ",
"# 4 4 a ` I.S.f.0.4 + o # # X O # o o o o O O 4 w Y v 4 $ 4 Y | | Y Y 4 O o O 4 4 Y 4 O O # + # 4 # ",
"Y v 4 o o a 4.4.` v O X O o # O O O o . . . O 4 # w Y Y Y O.4.O.Y 4 O o O . . o . O 4 # O O o O a Y ",
"4.| w . . + 4.Y Y v 4 # O . o O # o o o O O w w X # w Y w Y Y Y 4 4 O o . . . . . O $ w 4 O O 4 ` 4.",
"i.0.Y O o 4 Y w 4 4 4 # 4 4 $ $ 4 . . 4 ` O.Y 4 O O # O O 4 Y Y v 4 o o . . . X $ Y X.O.| Y Y Y 4.4.",
"0.4.Y # o o O + 0.0.o w O v i.4.Y o o ` 4.4.Y # # O O . . O O O # O O O . . o O # Y 4.O.i w 4 v Y 4.",
"| | Y 4 O o . 4 R.` a 4 0.4 c.C.0.a 4.l.0.4.Y w # O O . O 4 O o + 4 4 4 # 4 # 4 v v Y Y | Y Y 4 4 Y ",
"w Y Y 4 O . o j { 4 w a Q.W.Q.I.0.a l.c.i.Y Y 4 # O o O # O O o 4 | Y w 4 Y | Y w 4 4 Y Y O.Y w w w ",
"4 O . O O . o . o # # + F.~.Q.c.Y 4.Z.c.4.4 a 4 # # O 4 v O . . Y 4.Y 4 # $ w Y O # 4 Y 4.Y w v Y v ",
"Y 4 O + o . o 4 O O 4 4 M ~.Q.0.+ 0.Z.0.Y O . O # # Y O.| 4 o O O 4 4 Y Y w 4 w # 4 w Y | Y Y Y w 4 ",
"4 a . .   v !.l.4 4 4 Y + p a O 4 O.i.4.Y # . . . # v Y O.Y Y 4 # 4 w 4 4 4 w 4 4 4 4 v 4 4 v 4 4 4 ",
"O O . . o + ` 0.Y w v 4 4 o O O O O # 4 4 4 O O O O 4 O.O.Y O.Y 4 v 4 O o O 4 O o . # 4 4 # a 4 4 # ",
"# . . O 4 # # ` Y Y Y v O 4 Y 4 . O O 4 O + . . # O 4 Y w O.Y 4 v Y 4 O . . . o . . o O # 4 O.` 4 O ",
"# O o O O # a v Y Y v 4 a v # O o 4 4 4 O o . . # 4 4 # v 4.4.4 4 # v 4 O O O . . . . O O v 4.4.v 4 ",
"# # $ 4 4 O 4 # w Y | Y Y 4 O O O O O O . . . O 4 # # w Y Y Y 4 O O Y v 4 # # O O X O O O 4 Y ` Y v ",
"o 4 Y Y v 4 4 4 Y 4.O.O.Y O . o O O O . .   . # 4 # 4 Y Y w 4 # O O 4 4 4 4 O o O O # 4 O # Y ` ` 4 ",
"4 w O.O.4.O.Y O.O.Y v 4 # o . . O O X O . . o # # 4 v w w 4 O # O 4 O O 4 # # O O # 4 4 4 v ` 4.4.v ",
"4 Y Y 4.4.4.O.O.` Y w 4 w O . . o X o O .   . $ # 4 w 4 # # . o O X O O # O O O O # 4 4 ` 0.0.0.4.Y ",
"v v Y ` Y Y 4 4 v v v w w 4 o o o o . .     O | Y Y v 4 # O . . O o O O 4 O O O o # Y Y 4.c.c.l.0.Y ",
"Y 4 v v v 4 O 4 v w w w 4 o o 4 O o . .   o Y | O.Y v 4 o . . o O O O O o X # o o v Y Y v Y l.0.4.Y ",
"Y Y 4 4 4 O O # 4 4 4 4 # . . # 4 O . . o | 4.4.Y w w # o . . o O o O 4 O O 4 # # O.4.4.# + 4 a l.4.",
"Y 4 O O 4 O O o O # O 4 4 O . 4 4 O 4 4 4 4.7.7.w 4 v O o . . O o . O + O O O $ i 4 o # O . . 4 Y Y ",
"v O o o O 4 # O # # # $ 4 # O 4 4 4 Y Y O.4.4.Y 4 4 Y O O . . o . . o O o O O # # # . . .   . o 4 Y ",
"4 4 O . O # 4 4 Y Y w Y 4 4 # O v 4.4.4.Y 4 Y 4 4 a 4 O . . . . . . o 4 4 4 # $ w # O . o o . . 4 Y ",
"Y O . . # # 4 w v Y 4 4 4 Y Y Y 4 v Y Y O o # 4 | Y w 4 o . . . o . o Y w # O 4 4 O O o . o O O o 4 ",
"w 4 . . o # 4 Y Y 4 4 # O 4 v v 4 O ` 0.Y 4 4 O.4.O.Y 4 # O . O 4 4 w 4 4 4 4 4 O O O # O . . O 4 w ",
"4 v 4 o . o # 4 Y Y Y $ X # # 4 4 # a c.0.v 4.O.O.Y ` 4 4 4 O w # 4 Y # O O O o O # 4 # O o . o w | ",
"# 4 4 o . . O # . | 4 # X # 4 # 4 # v i.` O O.| 4.Y 4 4.i.Y # w $ w 4 4 # w # . 4 O . . o o o # # 4 "
};
