/* XPM */
static char *_7757c78cff14c9efd46896167b71b82F2whkfVRHZR4VZBO[] = {
/* columns rows colors chars-per-pixel */
"50 63 190 2 ",
"   c #B09464",
".  c #000303",
"X  c #130C02",
"o  c #080F12",
"O  c #00161B",
"+  c #001013",
"@  c #141414",
"#  c #1C1C1D",
"$  c #161819",
"%  c #2E1B09",
"&  c #281805",
"*  c #321D0A",
"=  c #231C13",
"-  c #221F1B",
";  c #37220B",
":  c #3E250A",
">  c #2C2316",
",  c #342515",
"<  c #3D2A13",
"1  c #001E26",
"2  c #1E1F21",
"3  c #01222B",
"4  c #1B2629",
"5  c #1F2021",
"6  c #022A34",
"7  c #012E3A",
"8  c #002630",
"9  c #132A31",
"0  c #01323E",
"q  c #1D3733",
"w  c #222223",
"e  c #29292A",
"r  c #3F3F3F",
"t  c #412606",
"y  c #462A09",
"u  c #4C2D0C",
"i  c #43280A",
"p  c #512E0C",
"a  c #523109",
"s  c #5C360D",
"d  c #432A13",
"f  c #502F10",
"g  c #553211",
"h  c #5C3612",
"j  c #663E0B",
"k  c #613813",
"l  c #6D410C",
"z  c #73450E",
"x  c #7C4A0E",
"c  c #784C14",
"v  c #604B21",
"b  c #66562C",
"n  c #002F40",
"m  c #023542",
"M  c #013947",
"N  c #023D4C",
"B  c #113640",
"V  c #003D50",
"C  c #09404C",
"Z  c #014354",
"A  c #014759",
"S  c #014A5D",
"D  c #1D4752",
"F  c #014E62",
"G  c #015165",
"H  c #01556A",
"J  c #03596F",
"K  c #115C6F",
"L  c #015D74",
"P  c #275A66",
"I  c #026077",
"U  c #02637B",
"Y  c #396F7C",
"T  c #286676",
"R  c #48614C",
"E  c #6C6B6A",
"W  c #824E0F",
"Q  c #8A530F",
"!  c #8D5511",
"~  c #875210",
"^  c #915711",
"/  c #935912",
"(  c #9B5D12",
")  c #A05F12",
"_  c #A46212",
"`  c #AA6614",
"'  c #AC6916",
"]  c #B46C15",
"[  c #B96F15",
"{  c #BD7215",
"}  c #966924",
"|  c #C37616",
" . c #C77816",
".. c #CE7B17",
"X. c #C37518",
"o. c #CC7B19",
"O. c #D17D17",
"+. c #D27E19",
"@. c #D68019",
"#. c #DB831A",
"$. c #E1871B",
"%. c #E58A1B",
"&. c #EC8D1C",
"*. c #F5931E",
"=. c #F9951E",
"-. c #FD981E",
";. c #026A84",
":. c #026E89",
">. c #036780",
",. c #1F6D81",
"<. c #03718D",
"1. c #037592",
"2. c #027896",
"3. c #047D9C",
"4. c #0B7B96",
"5. c #1E7B92",
"6. c #27788C",
"7. c #3D7684",
"8. c #4A7986",
"9. c #527D88",
"0. c #03809F",
"q. c #0F819D",
"w. c #1D849E",
"e. c #2B879F",
"r. c #0483A3",
"t. c #048AAC",
"y. c #0B8AAA",
"u. c #0686A7",
"i. c #048FB1",
"p. c #088FB1",
"a. c #0491B5",
"s. c #0496BA",
"d. c #0498BE",
"f. c #0C95B7",
"g. c #1791B0",
"h. c #1C8AA5",
"j. c #338BA0",
"k. c #2C90A9",
"l. c #3E91A6",
"z. c #2596B2",
"x. c #218BA6",
"c. c #4D828F",
"v. c #588B98",
"b. c #73939C",
"n. c #7C989F",
"m. c #4493A7",
"M. c #5C9AAA",
"N. c #5598A9",
"B. c #669AA7",
"V. c #7D9EA6",
"C. c #049DC3",
"Z. c #04A0C7",
"A. c #04A4CC",
"S. c #04A7D0",
"D. c #05A9D2",
"F. c #8B8B8B",
"G. c #828080",
"H. c #979797",
"J. c #89A4AB",
"K. c #96A8AC",
"L. c #93AEB6",
"P. c #9AB2B8",
"I. c #A1A5A6",
"U. c #A7B4B7",
"Y. c #B3B4B4",
"T. c gray",
"R. c #B0B8BB",
"E. c #B4BEC0",
"W. c #BAC2C4",
"Q. c #B9C4C7",
"!. c #C3C3C3",
"~. c #C9CBCB",
"^. c #C2CED2",
"/. c #D3D4D4",
"(. c #DADADB",
"). c #D2D6D8",
"_. c #C9D1D3",
"`. c #E4E4E4",
"'. c #ECEBEB",
"]. c #E8E7E8",
"[. c #F2F0EF",
"{. c #F2F1F1",
"}. c #F7F7F7",
"|. c #F4F2F2",
" X c #FAFAFA",
".X c white",
"XX c #FEFEFE",
"oX c gray99",
"OX c #FEFDFD",
"+X c #F9F7F6",
/* pixels */
"                                                  J 2.U Z M                                         ",
"                                                :.C.D.2.L L H S L L                                 ",
"                                                s.D.D.3.L L L U s.A.s.r.1.U S                       ",
"                                              L s.A.D.C.:.L U 3.A.D.D.D.D.C.:.H G Z 0               ",
"                                              t.D.D.D.D.A.a.s.A.D.D.D.D.A.t.:.L L L J S m           ",
"                                            G a.A.D.D.D.D.D.D.D.D.D.D.D.D.t.L L L L L L L A         ",
"                                          H s.A.S.D.D.D.D.D.D.D.D.D.D.D.D.A.<.L L H A H L L F       ",
"                                          r.D.D.D.D.D.D.D.D.D.D.D.D.D.A.A.D.i.L L Z n S L L L S     ",
"                                          d.D.D.D.D.D.D.D.D.D.S.A.A.D.A.t.a.t.L L G Z H L L L L M   ",
"                                      E D :.1.t.A.D.D.D.D.Z.g.m.M.N.k.d.C.1.:.I L L L L L L L L A   ",
"                                F./.{.{.).B.4.F a.D.D.D.d.M._.|.oX X`.L.z.C.<.L L L H N S L L L S   ",
"                              F.I.E '..X.X[.N.C.A.D.D.C.B.{..X.X.X.X.X.X^.z.C.;.L L F V H L L L S   ",
"                              ~.I.r `..X.X.XQ.f.D.D.A.j.`. XT.`..X.X.X.X.XL.r.u.L L L L L L L L Z   ",
"                              `. X'..X.X.X'./.x.D.D.d.J..X(.# F..X.X.X.X.X(.T ;.U L L L L L L L N   ",
"                              (..X.X.X.X}.`.W.h.D.D.y.Q..X}.Y.(..X.X.X.X'.'.8.L L L L L L L L H     ",
"                              Y..X.X.X.X'.'.J.p.D.D.y.Q..X.X.X.X.X.X.X.X'.`.9.L L L L L L L L A     ",
"                                ~..X.X{.`.W.6.i.A.D.t.P..X.X.X.X.X.X.X X'.(.Y L L L L L L L H 7     ",
"                                P V.E.R.n.6.s.4.A.D.C.v.+X.X.X.X.X.X.X].{.R.K L L L L L G G N       ",
"                                :.s.y.y.u.:.r.r.;.A.S.q.U..X.X.X.X}.}.`.(.8.L L L L L S Z A S S Z   ",
"                                r.A.A.S.i.7 2.A.m <.i.C.5.U.{..X'.'.'.~.v.L L L L L H A m 0 S G S N ",
"                              r.D.C.C.A.C.r.A.S.M L 3.A.Z.4.c.J.I.K.b.e.t.U L L L L F N S G Z L H N ",
"                              r.d.m.l.s.A.D.D.A.t.s.C.D.D.S.C.t.u.y.d.A.3.L L L L L H J L G F L G m ",
"                                b.'.'.M.C.D.t.U C.D.d.C.S.C.a.A.D.t.t.A.1.L L L L L L L L H L H N   ",
"                                !..X.X].7.2.    ;.a.i.t.r.3.r.1.C.1.C.Z.r.L L L L F N A F F A m     ",
"                                !. X}.'.G.        H 3.A.Z.A.D.r.>.r.D.s.U G A M m                   ",
"                                T./.(.(.F.            :.C.C.C.S.C.C.:.Z 0                           ",
"                                H.Y.Y.Y.                r.C.d.C.A.U 7                               ",
"                                                          a.A.A.r.H N                               ",
"                                                          L s.a.U G q :                             ",
"          3 L 7                           y y               m ;.J v  .(                             ",
"          N a.L       M 6 c |  ...+.@.#.#.#.#.#.#.@.+.o.X.{ ' } c ) &.`                             ",
"          6 2.:.3 H r.C.s.R &.=.=.=.=.=.=.=.=.=.=.=.=.=.=.=.*.*.] ] #.]                             ",
"    U :.J Z F ;.t.A.D.D.s.N ( =.=.=.=.=.*.*.*.*.*.*.&.&.#. .[ ' z | +.[ t                           ",
"  H A.0.L 1.C.D.D.D.D.A.F   u o.$.#.#.#.%.%.#.#.@.+.O.......| ] W +...| u                           ",
"O <.t.0 + U d.0.u.S.D.;.      y ! ` {  ...........O...| ` ! ~ / { @... .s                           ",
"  7 0   m r.A 3 U S.r.3       a _ O.........O...{ ( W ! ` ..&.*.*.O.....l                           ",
"        m u.m   H C.A       C b W | ..O...{ _ W x x ! *.=.=.*.*.%.......x                           ",
"        m t.Z   S d.N   N r.A.1., W | _ W x / ] .._ [ =.*.*.&.&.#.....O.Q                           ",
"        6 :.Z . 6 3.U 7 i.D.S.J   & t z ]  .O.O...W +.=.*.*.$.%.#.....O.(                           ",
"            O   O 7 U Z 1.D.d.m     & ( O...O.| x u %.=.*.*.+.#.+.....O.`                           ",
"              A G U I L r.D.3.          ^  .] j   z *.*.*.*.| @.O.......]                           ",
"          M t.3.J 3.C.<.t.D.L             l a     ^ =.*.*.*.] ..........| a                         ",
"          J A.S + <.I 1 H C.F                     ] $.%.=.*.` .......... .j                         ",
"          S 1.7   <.J   7 u.<.                    ( u X.-.+.x  ...O.O.....x                         ",
"            1     G u.0   S 2.U 6               X = # ( ! < = ^ O.` ~ { O.!                         ",
"                  7 2.A     3 N 8                 $ # = # 2 2 , z > $ < ^ (                         ",
"                    3                             @ w w w w w # $ 5 w 2 - ;                         ",
"                                                    $ w w w w w # w w e #                           ",
"                                                      $ w w w w w w e #                             ",
"                                                      @ $ $ $ w w # @                               ",
"                                                      # w w # # w w                                 ",
"                                                      # w w # $ w w w                               ",
"                                                    $ w w w     # 9 4 w                             ",
"                                                    # w w 2       :.B w #                           ",
"                                                  $ # w w           4 w w w                         ",
"                                      S           @ $ # #           $ w w w w                       ",
"                                    ,.w.2.          N 3               # > , d f                     ",
"                                    8.N.C.a.      ;.;.                d g h g u %                   ",
"                                        U a.t.3.:.t.U           t p h k k g %                       ",
"                                          S L ;.u.d.H         t s k k h u *                         ",
"                                                Z ;.S         p k h f :                             ",
"                                                              u g i *                               ",
"                                                              * ;                                   "
};
