/* XPM */
static char *_5930c5391ec45c5f6f5caede27a635f8K7piJKveNClyAob[] = {
/* columns rows colors chars-per-pixel */
"50 50 96 2 ",
"   c #B09464",
".  c #010101",
"X  c #080707",
"o  c #090807",
"O  c #0C0B0A",
"+  c #100E0C",
"@  c #12100E",
"#  c #161514",
"$  c #1A1714",
"%  c #1B1916",
"&  c #1D1C1D",
"*  c #211E1A",
"=  c #24211C",
"-  c #1F1D20",
";  c #262524",
":  c #2A2723",
">  c #2D2A24",
",  c #282628",
"<  c #2C2B28",
"1  c #312D26",
"2  c #312E2B",
"3  c #363423",
"4  c #35312B",
"5  c #3B362E",
"6  c #363434",
"7  c #3B3731",
"8  c #3E3932",
"9  c #383639",
"0  c #3C3A3D",
"q  c #413D36",
"w  c #423F39",
"e  c #68641A",
"r  c #726E18",
"t  c #46413C",
"y  c #49453F",
"u  c #464340",
"i  c #4A4641",
"p  c #4D4A45",
"a  c #474448",
"s  c #4E4C4B",
"d  c #504C47",
"f  c #524E4A",
"g  c #54514C",
"h  c #524F54",
"j  c #575450",
"k  c #595652",
"l  c #575957",
"z  c #5C5A52",
"x  c #5D5C59",
"c  c #615D5D",
"v  c #706D4E",
"b  c #76724C",
"n  c #78734D",
"m  c #656550",
"M  c #696A50",
"N  c #666262",
"B  c #686466",
"V  c #6D696B",
"C  c #6E6D70",
"Z  c #736E74",
"A  c #737073",
"S  c #757078",
"D  c #787379",
"F  c #7C767D",
"G  c #7D777E",
"H  c #7C767F",
"J  c #7D787F",
"K  c #7E787F",
"L  c #C6C33F",
"P  c #D6D33D",
"I  c #E4DC39",
"U  c #E9E139",
"Y  c #E9E13A",
"T  c #F8EF34",
"R  c #FEF536",
"E  c #8A8F4B",
"W  c #919849",
"Q  c #7F7A81",
"!  c #807A82",
"~  c #817B83",
"^  c #827C85",
"/  c #847D87",
"(  c #847F87",
")  c #857F89",
"_  c #7C8589",
"`  c #7D8990",
"'  c #83878E",
"]  c #8C929A",
"[  c #8C929B",
"{  c #89969C",
"}  c #8F969F",
"|  c #8A989E",
" . c #8B9AA2",
".. c #9299A3",
"X. c #929AA3",
"o. c #91A0A8",
/* pixels */
"                                                                                                    ",
"                                                                                                    ",
"                                                                                                    ",
"                                                                                                    ",
"                                                                                                    ",
"                                                                                                    ",
"                                                        . . . . . . . . .                           ",
"                                                        $ $ $ $ $ $ # O O O                         ",
"                                                      O w g g g g f w 4 4 % .                       ",
"                                                  . & 6 f k k k k k f i 8 > * O                     ",
"                                                  . 3 b b v m z k k k g 8 5 4 O .                   ",
"                                                  . e I U L E m k k k g 8 5 4 O .                   ",
"                                                  . r T R P W M k k k g 8 5 4 O .                   ",
"                                                  . e I U L E m k k k g 8 5 4 O .                   ",
"                                                  . 3 b n v m z k k k g 8 5 4 O .                   ",
"                                                  . & 6 y f k k k k f y 8 > * O                     ",
"                                                      o > q f g j g y 5 4 % .                       ",
"                                                        O @ % 4 w q 8 1 # . .                       ",
"                                                        % $ # > 5 5 q 8 * # @                       ",
"                      .                           . . O u p 7 5 5 5 i g g y 1 O .                   ",
"                    $ s 6 . . . . . . . . . . . O 4 7 0 B Z B y 5 5 i k k g i > % .                 ",
"                  . % Z h - & & & & & & & & & & , k c N J ) ~ x i i k c k k g q = .                 ",
"                  . % Z H S S S S S S S S S S S D Q ~ ~ ^ ( ( ~ H H J D x k g q = .                 ",
"                    $ 9 0 0 0 0 0 0 0 0 0 a B V A [ X.[ B C } X.' c x x k f y 8 = .                 ",
"                      . . . . . . . . . . # p g x `  .{ s l | o._ y 8 t g i 5 5 = .                 ",
"                                        . O 5 q 5 & 0 x t q p x x g g g k i 5 5 = .                 ",
"                                          O % * % . ; g q 5 5 t i p i i i w 4 = # .                 ",
"                                            . . . . ; p q 8 8 8 8 8 8 5 5 5 4 O .                   ",
"                                                    O % y g f f f f t 5 5 5 4 O .                   ",
"                                                      X 2 w p p p p q 5 5 1 * O                     ",
"                                                        O % 7 8 8 8 8 8 7 * .                       ",
"                                                      X 4 y p d d d d d p 8 = O                     ",
"                                                    @ % p k k g f f g k k p 8 $ O                   ",
"                                                  . ; f k k j t 8 8 p k k k g 8 = .                 ",
"                                                O 2 u k k k j t 1 % 0 k k k k d 8 = O               ",
"                                              . O p k k k j f w : . < p k k k k p 4 O .             ",
"                                              . O p k k k p q 5 : . . % s k k k p 4 O .             ",
"                                              . . ; 7 i i t 5 = # . . X ; 7 i i t 4 + .             ",
"                                              O O O = 8 8 8 4 @ . . . O O = 8 8 8 5 + .             ",
"                                            . < i i p g g i 5 @ . . < i i p g g g p $ .             ",
"                                            . : p p p p p y 5 $ . . < p p p p p p y # .             ",
"                                            . * 5 5 5 5 5 5 5     . = 5 5 5 5 5 5 4 + .             ",
"                                                                                                    ",
"                                                                                                    ",
"                                                                                                    ",
"                                                                                                    ",
"                                                                                                    ",
"                                                                                                    ",
"                                                                                                    ",
"                                                                                                    "
};
