/* XPM */
static char *_f8a33f4d8b24db2f696c99ec06a09c27hly1rZsXOF0a9VO[] = {
/* columns rows colors chars-per-pixel */
"50 50 97 2 ",
"   c #B09464",
".  c #010101",
"X  c #080707",
"o  c #0A0807",
"O  c #0C0B0A",
"+  c #100E0C",
"@  c #12100E",
"#  c #161513",
"$  c #1A1714",
"%  c #1B1916",
"&  c #181719",
"*  c #1D1C1D",
"=  c #201E1A",
"-  c #24211C",
";  c #1F1D20",
":  c #262524",
">  c #2A2723",
",  c #2D2A24",
"<  c #282628",
"1  c #2C2B28",
"2  c #312D26",
"3  c #312E2B",
"4  c #363423",
"5  c #35312B",
"6  c #3B362E",
"7  c #353334",
"8  c #3B3731",
"9  c #3E3932",
"0  c #383539",
"q  c #3C3A3D",
"w  c #413D36",
"e  c #423F39",
"r  c #68641A",
"t  c #726E18",
"y  c #46413C",
"u  c #49453F",
"i  c #464340",
"p  c #4A4641",
"a  c #4D4A45",
"s  c #474448",
"d  c #4E4C4B",
"f  c #504C47",
"g  c #524E4A",
"h  c #54514C",
"j  c #524F54",
"k  c #575450",
"l  c #595652",
"z  c #575957",
"x  c #5C5A52",
"c  c #5D5C59",
"v  c #615D5D",
"b  c #706D4E",
"n  c #76724C",
"m  c #78734D",
"M  c #656550",
"N  c #696A50",
"B  c #666262",
"V  c #686466",
"C  c #6D696B",
"Z  c #6E6D70",
"A  c #736E74",
"S  c #737073",
"D  c #757078",
"F  c #7C767D",
"G  c #7D777E",
"H  c #7C767F",
"J  c #787379",
"K  c #7D787F",
"L  c #7E787F",
"P  c #C6C33F",
"I  c #D6D33D",
"U  c #E4DC39",
"Y  c #E9E139",
"T  c #E9E13A",
"R  c #F8EF34",
"E  c #FEF536",
"W  c #8A8F4B",
"Q  c #919849",
"!  c #7F7A81",
"~  c #807A82",
"^  c #817B83",
"/  c #827C85",
"(  c #847D87",
")  c #847F87",
"_  c #857F89",
"`  c #7C8589",
"'  c #7D8990",
"]  c #83878E",
"[  c #8C929A",
"{  c #8C929B",
"}  c #89969C",
"|  c #8F969F",
" . c #8A989E",
".. c #8B9AA2",
"X. c #9299A3",
"o. c #929AA3",
"O. c #91A0A8",
/* pixels */
"                                                                                                    ",
"                                                                                                    ",
"                                                                                                    ",
"                                                                                                    ",
"                                                                                                    ",
"                                                                                                    ",
"                          . . . . . . . . .                                                         ",
"                        O O O # # # # # # #                                                         ",
"                      . % 5 5 e g h h h h e O                                                       ",
"                    o = , 9 p g l l l l l g 7 * .                                                   ",
"                  . o 5 6 9 h l l l x M b n n 4 .                                                   ",
"                  . o 5 6 9 h l l l M W P T U r .                                                   ",
"                  . o 5 6 9 h l l l N Q I E R t .                                                   ",
"                  . o 5 6 9 h l l l M W P T U r .                                                   ",
"                  . o 5 6 9 h l l l x M b m n 4 .                                                   ",
"                    o = , 9 p g l l l l g u 7 * .                                                   ",
"                      . % 5 6 u h k h g w , o                                                       ",
"                      . . # 2 9 w e 5 & @ O                                                         ",
"                      @ # = 9 w 6 6 , # # &                                                         ",
"                  . O 2 u h k p 6 6 6 8 a i O . .                           .                       ",
"                . & , p h l l p 6 6 u V A V q 8 5 o . . . . . . . . . . . 7 d #                     ",
"                . - w h l l v l p p c ~ _ K B v l < * * * * * * * * * * ; j A % .                   ",
"                . - w h l c J K F F ~ ) ) / ~ ~ ! J D D D D D D D D D D D F A & .                   ",
"                . - 9 u g l c c v ] o.| Z V { o.{ S C V s q q q q q q q q q 0 #                     ",
"                . - 6 6 p h y 9 u ` O. .z d } ..' c h a # . . . . . . . . . .                       ",
"                . - 6 6 p l h h h c c p w y c q * 6 w 6 O .                                         ",
"                . # - 5 e p p p p p y 6 6 w h : . & = % o                                           ",
"                  . O 5 6 6 6 9 9 9 9 9 9 w a : . . . .                                             ",
"                  . o 5 6 6 6 y g g g g h u % O                                                     ",
"                    o - 2 6 6 w a a a a e 3 X                                                       ",
"                      . = 8 9 9 9 9 9 8 % o                                                         ",
"                    o - 9 a f f f f f a u 5 X                                                       ",
"                  O $ 9 a l l h g g h l l a * @                                                     ",
"                . - 9 h l l l a 9 9 y k l l g : .                                                   ",
"              O - 9 f l l l l q % 2 y k l l l i 3 O                                                 ",
"            . O 5 a l l l l a 1 . > e g k l l l a O .                                               ",
"            . O 5 a l l l d & . . > 6 w a l l l a O .                                               ",
"            . + 5 y p p 8 : X . . # - 6 y p u 8 : . .                                               ",
"            . + 6 9 9 9 - O o . . . @ 5 9 9 9 - o o o                                               ",
"            . # a h h h a p p 1 . . @ 6 p h h a p p 1 .                                             ",
"            . # u a a a a a a 1 . . $ 6 u a a a a a > .                                             ",
"            . + 5 6 6 6 6 6 6 - .     6 6 6 6 6 6 6 = .                                             ",
"                                                                                                    ",
"                                                                                                    ",
"                                                                                                    ",
"                                                                                                    ",
"                                                                                                    ",
"                                                                                                    ",
"                                                                                                    ",
"                                                                                                    "
};
