/* XPM */
static char *_38c59a35c05450b9f909f5c0c6f7bc96nZHFlyBOrYlIvAU[] = {
/* columns rows colors chars-per-pixel */
"50 50 222 2 ",
"   c #050303",
".  c #0B0402",
"X  c #0B0A07",
"o  c #170C05",
"O  c #1B1301",
"+  c #1D140F",
"@  c #19160B",
"#  c #1B1511",
"$  c #1B1C15",
"%  c #251604",
"&  c #261B0C",
"*  c #2C1C0F",
"=  c #251806",
"-  c #311F07",
";  c #231A13",
":  c #251E1A",
">  c #2A2114",
",  c #24231D",
"<  c #2C221C",
"1  c #292516",
"2  c #33261D",
"3  c #3B2D1D",
"4  c #372A15",
"5  c #372205",
"6  c #291F20",
"7  c #242522",
"8  c #2C2923",
"9  c #312623",
"0  c #332B22",
"q  c #3A2D24",
"w  c #352D2A",
"e  c #3C2F29",
"r  c #343227",
"t  c #393024",
"y  c #35342B",
"u  c #3B342B",
"i  c #3C3A2D",
"p  c #35392B",
"a  c #363532",
"s  c #3B3532",
"d  c #3D3A32",
"f  c #3D3C3A",
"g  c #3D3739",
"h  c #49350C",
"j  c #443719",
"k  c #41362B",
"l  c #443A2C",
"z  c #4C3C2C",
"x  c #473A24",
"c  c #513C21",
"v  c #423C35",
"b  c #423D3B",
"n  c #493D31",
"m  c #3E423B",
"M  c #3E4130",
"N  c #584219",
"B  c #6C5F19",
"V  c #6E6313",
"C  c #776E13",
"Z  c #5B4726",
"A  c #414235",
"S  c #43423C",
"D  c #4A443B",
"F  c #4D4B3D",
"G  c #474A37",
"H  c #554634",
"J  c #554A3C",
"K  c #5E4E3C",
"L  c #564A37",
"P  c #4D503F",
"I  c #5D523C",
"U  c #53503D",
"Y  c #47412B",
"T  c #66573B",
"R  c #776F31",
"E  c #75743A",
"W  c #434541",
"Q  c #4B4643",
"!  c #4D4B45",
"~  c #4D4D49",
"^  c #494847",
"/  c #524B43",
"(  c #524D4B",
")  c #564B47",
"_  c #4F514C",
"`  c #525247",
"'  c #5A5144",
"]  c #54534C",
"[  c #5B554D",
"{  c #5A5A4C",
"}  c #5A5B49",
"|  c #504B52",
" . c #4E5452",
".. c #555452",
"X. c #595553",
"o. c #565853",
"O. c #5B5A53",
"+. c #5C5B5C",
"@. c #635444",
"#. c #6C5D44",
"$. c #6A5D4A",
"%. c #655948",
"&. c #605A59",
"*. c #6A6144",
"=. c #6C624C",
"-. c #656448",
";. c #746545",
":. c #73624B",
">. c #776949",
",. c #7C694A",
"<. c #7D7342",
"1. c #6E6352",
"2. c #67625B",
"3. c #746854",
"4. c #7C6B53",
"5. c #7B6C5A",
"6. c #726455",
"7. c #7E7159",
"8. c #5C5B60",
"9. c #645C69",
"0. c #6A6665",
"q. c #69656B",
"w. c #736A66",
"e. c #7F7367",
"r. c #6D6A74",
"t. c #736D74",
"y. c #796E7C",
"u. c #6E7275",
"i. c #7A7A7C",
"p. c #78757D",
"a. c #807C33",
"s. c #83735B",
"d. c #8B765C",
"f. c #8C795E",
"g. c #847254",
"h. c #957D5D",
"j. c #846C4F",
"k. c #A17E51",
"l. c #A17F5A",
"z. c #8E7A64",
"x. c #817E7F",
"c. c #828045",
"v. c #8D8855",
"b. c #9E8354",
"n. c #93835A",
"m. c #9C855B",
"M. c #9A885A",
"N. c #989457",
"B. c #A3864E",
"V. c #A38555",
"C. c #A58A55",
"Z. c #A98B56",
"A. c #A48659",
"S. c #A9875A",
"D. c #A58A5B",
"F. c #AA8C5D",
"G. c #A88555",
"H. c #AA9156",
"J. c #A7915C",
"K. c #AC915C",
"L. c #A69054",
"P. c #B1935E",
"I. c #BABC55",
"U. c #958264",
"Y. c #9B8663",
"T. c #9D8A64",
"R. c #9B826A",
"E. c #9C8B6B",
"W. c #94846A",
"Q. c #9F9069",
"!. c #9C8D75",
"~. c #938775",
"^. c #A18765",
"/. c #A88763",
"(. c #A48C63",
"). c #AE8F61",
"_. c #AC8D62",
"`. c #A38C6B",
"'. c #AE8E68",
"]. c #B08F63",
"[. c #A69265",
"{. c #AD9161",
"}. c #AF9365",
"|. c #AD9163",
" X c #A4916B",
".X c #AC936A",
"XX c #AF9960",
"oX c #B19364",
"OX c #B39962",
"+X c #B19269",
"@X c #B3956A",
"#X c #B5996B",
"$X c #B99D6D",
"%X c #A28E71",
"&X c #A59373",
"*X c #AB9572",
"=X c #A69875",
"-X c #AA9973",
";X c #A6947F",
":X c #AA9A7A",
">X c #A5987D",
",X c #B49D72",
"<X c #B39D7C",
"1X c #B9A17D",
"2X c #B6A27F",
"3X c #D7DA5D",
"4X c #EBF05E",
"5X c #D1CF60",
"6X c #D8D56E",
"7X c #E7E668",
"8X c #7C7D82",
"9X c #837886",
"0X c #7F8185",
"qX c #828184",
"wX c #89898D",
"eX c #8F8F97",
"rX c #8E9295",
"tX c #959599",
"yX c #AB9B82",
"uX c #A79785",
"iX c #B19C81",
"pX c #9E9BA4",
/* pixels */
").).F.Z.C.D.(.(.(.[.D.V.S.V.S.A.(.(.[.|..X[.K.H.H.K.}.+X}.{.Z.C.C.F.).F.S.S.D.V.D.D.V.b.b.V.D.D.D.D.",
"F.F.F.F.D.F._.(..X_.C.C.F.C.D._.A.(.|.|._._.K.K.H.Z._.'._.F.D.C.C.Z.F.Z.S.C.V.V.V.V.V.b.V.V.D.D.D.D.",
").).F.Z.D.F._.|.@X|.K.P.oXF.D.'./.'.].F.F.F.F.F.Z.C.S.D.D.(.F.D.V.V.C.S.S.S.D.D.D.D.V.V.V.D.D.D.F.F.",
"@XoX).F.Z.D.F._._._.{.oX{.K.A._.'.]._.Z.S.Z.S.F.V.k.V.S.F.D.(.D.V.V.V.S.D.S.D.D.D.D.V.V.A.A.D.D.F.{.",
"@XoXoXK.F.Z.C.C.S.F.F.F.J.[.(.(.{.).).F.Z.C.V.A.A.l.C.S.Z.Z.F.D.S.C.D.Z.D.C.V.D.F.F.D.A.V.b.V.A.F.{.",
"'.'.{.F.F.C.C.C.F.F.F.F..XT. X X(.(.(.(.D.D.(.(././.F.Z.S.Z.F._.S.Z.F.F.Z.D.F.{.oX{.F.F.A.b.b.A.F.F.",
"@X}.).F.S.V.S.F.)._.(. XT.T #.*.-.*.=.$.#.g.(..X.X.X@X).Z.F.oX].F.).F.F.D.F.{.oXoX}.{.{.D.b.V.D.F.F.",
"}.}.}.K.F.C.Z.F.D.^.`.`.7.= O @ 1 $ , ; > I U.&X.X#X#XoXK.oX#X@X@X@XoXF.S.Z.{.oX{.{.{.{.F.V.V.D.F.{.",
"|.F.F.D.F.F.Z.D.m.`.%XH 3 0 0 A ^ ^ ~ ~ Q D k W.-X|.XXOXK.@XoX].).F.F.S.C.S.F.}._.F.F.F.D.F.{.oX{.{.",
"|.F.F.D.D.D.V.D.(.`.#.q < d ! ~ o.+.o.{ } L j *.n.|.J.L.K.F.S.F.Z.S.C.V.V.C.F.).F.F.D.D.F.}.#X$XoX{.",
"|.D.D.D.D.C.V.D.(.g.* 0 s S _ ] ] { } *.E a.R h Z T.J.C.K.F.A.A.Z.C.V.V.S.S.D.F._.F.D.V.F.#X#X#XoX{.",
"K.D.F.D.D.D.D.(.*X:.O 9 g f ~ O.[ ' 1.v.I.6X6XB h h.(.J.F.F.|.A.F.C.V.S.F.Z.D.F.F._.D.V.{.#X#XoX{.{.",
"D.D.F.V.V.D.D.D.&Xs.= 9 a f ] o.X.&.3.N.3X4X7XC N h.^.(.F.S._.D.S.C.S.F.).F.D.D.D.F.D.V.F.#X#X}.{.{.",
"C.S.F.S.V.D.A.m.`.4.o w v f ` ] X.X.1.v.I.3X5XV h R.^.m.D.S.S.A.V.C.Z.).oXoX_.D.F.F.D.V.A.}.#X{.{.F.",
"S.S._.F.S.F.D.D.`.4.* 0 s d ! { { ` O.-.E c.<.j c U.D.b.C.Z.D.V.V.D.F.).oXoX}.{.}.F.D.V.b.{.#XF.F.D.",
"A.C.F.F.F.Z.S.F.(.%X6.e 9 d F F } ` o.{ U Y x @.z.(.b.C.V.V.Z.C.C.F.F.F.F.).oXoX}.D.D.D.b.{.#X_.D.V.",
"D.D.Z.Z.S.F.F.D.D. X!.q ; w y G ] ..] Q v t k W.`.A.V.B.V.G.k.S.Z.F.F.F.F.F.F.F.Z.C.V.V.D.oX#XD.D.D.",
"_._.K.P.F.K.K.K.(.T.!.k o # y i S S a : # D ~.:X Xm.V.C.C.Z.S.V.F.F.).F.F.Z.S.S.Z.V.D.oXoXoX@X_.F.F.",
"}.|.oXoXK.F._.(.E.:X~.u # : s v y i 8 o + F ~.!.E. XD.C.V.V.D.D.D.b.b.D.F.F.D.C.C.V.{.$X$X#X+X@XoXoX",
"}._.F.F.F._.|. X&Xs.3 < D X.( ~ d u i i F D 2 > L E.:XE.T.Y.Y.Y.Y.E.(.(.(.(.D.D.oX#X$X$X#X#X#XoX{.{.",
"_._._.).{.@X,X<Xs.H 0 / ( X...^ d w Q &.w.0.d u v 1.1.1.3.6.=.3.5.3.4.d.E.`.(.D.}.#X#XoXoX#X#X).F.F.",
"D.F.).}.oX,X1XiX3 ; v [ ] X.0.X.( ( &.x.qXi.0.&.X.a < 9 9 < 9 9 < k k 3 K U.T.j.(.D._.F.).oX).F.D.D.",
"S.F.).).}.,X<X>X2 ; v ] O.O.q.p.y.9Xp.qX0Xp.0X8X8Xr.t.t.0.q.t.0.w.w.w.6.5.f.U.Y.}.}.).).{.F.D.D.D.D.",
"S.F.)._.{.,X2XyX2 : s S F O.X.+.9.wXpXeXu.q.rXtXeXp.r.q.| b g D D ) @.$.s.R.`.^._._.F.C.D.D.D.F.F.D.",
"oXoXF.V.C.|.*XyX2 ; s d A ] W f ^ x.tXwXo. .wXrXqX8...^ + ; l l x x c Z ,.m.D.V.V.C.F.F.D.D.D.D._.{.",
"oXoXF.C.V.F..X:X3 : u i D ] ] ] ` 2.O.~ W m ..W 7 a b 9 & $.>XE.E.T.m.m.m.D.V.V.V.S.F.F.D.D.D.F.{.oX",
"#X@XK.Z.C.F..X*Xz.' > r D D Q ^ F G A p p m o., . + & 3 >.E.[.[.(.(.^.m.b.b.b.S.Z.K.oXoXK.F._.{.oXoX",
"#X@XoXZ.V.C.D.`.yX7.O 0 i i d d A i M d d m ^ d 2 3 4 Z T.[.b.D.D.(.D.A.A.A.S.F.F.K.K.oXK.F.F.F.{.}.",
"oX}.{.F.C.V.D.(.:Xs.& 9 u d s v F F ` ! ` b 9 e.uX!.`.m.D.D.K.b.(.'.'._._._.D.D.F.F.K.{.oX{.F.Z.).).",
"'._.F.F.D.C.D.(.,XE.$.t 9 s y v F ` ~ ~ v D 6.yX&XT.(._.D.S.D.V.D.}.@X_._.{.}.}.F.F.F.{.oXoX{.F.).).",
"(.D.S.S.C.V.V.D.m.-X!.u 6 b d d b g s v < J !. X^.K.D.F.F.F.A.D.).oXK.Z.C.D.F.|.D.D.D.F.{.].).F.).).",
"}._.F.Z.Z.S.D.(..XU.%.q a ~ ~ / ( Q [ Q v H #.&X(.F.Z.P.P.).A.D.F.Z.Z.K.K.K.F.J.F.F._.{.oXoX].).).).",
"'.'.C.V.V.(.1XiX;X$.< s Q ..O.( ] ! [ ] O.D 0 5.E.^.|.oXK.F.].F.S.F.{.F.F.F.F.F.F.D._.{.F.F.).).).F.",
"D.S.V.V.V.(.<X;Xz w u ( o.o.X.Q s d G ] O.] D n K E.|.D.OXP.).).F.{.F.D.A.D.D.D.D.A.D.F.F.F._._.F.F.",
"F.S.V.Z.D.[.Y.#.3 i ( ] ] ] o.b $ r A ] ] ] 2.[ K ,..X_.{.oX).oX).{.F.D.V.V.D.D.V.b.V.D.D.F.{.{.F.F.",
"S.V.V.C.D.(.;.= t G o.] o.O.W 7 X , f ~ o.] O.2.$.4 m.|.D.@X@X_.F.F.F.F.D.D.D.A.V.b.V.D.D._.oXoX).F.",
"D.F.K.D.D. X;.O y ~ O.o.] ^ $   X 7 a f ~ X.] [ @.- h..X|.|.@XD.S.D.F._.F.F.D.A.A.A.D.D.D.F.}.oXoX{.",
"D.D.K.|.[.Q.#.O 0 S W W a ,       # 7 a f Q Q v 3 % Y..X_.D._._.D.D.F.F.F.F.D.D.D.D.F.D.D.D.{.{.oX).",
"'.'.}..X,X=X$.= u S f f 8 # X .     o y v v l > % 5 m.}.F.K.V.F.D.D.D.D.D.D.D.D.D.D.F.F.F.{.}.{.{.{.",
"F.'.@X[.*X-X:.& D / ` ~ ! b D 9 . . # u D ' ' H T U..XF.Z.Z.C.C.D.D.D.D.D.D.D.D.D.D.F._.{.oX#X@XoX}.",
"oX).{.}..X&X:.= v / F F D J J 2 o %.1.L I %.T :.f.(.}.F.C.C.C.V.D.D.D.D.D.D.D.A.D.F.{.{.}.#X#X#XoX{.",
"F.Z.F.{.}.`.,.j L @.I I I I K z z W.&X>.T ;.d.U.`.}.oXF.C.V.V.V.D.D.D.D.D.D.D.D.D._.{.{.{.}.oXoXoX}.",
"P.P.K.S.D.|.*X&X&X:X=X=X=X X&X%X X(.m.n.M.(..X.X}.+X_.Z.C.V.V.S.D.A.D.D.D.D.D.D.F.{.}.{.F.D.F.{.@XoX",
"K.Z.Z.C.S.D.(.Y.(. X(. X[.T.(..X.XD.D.J.J.}.#X#X'._.S.S.S.V.A.D.S.V.D.D.D.D.D.D.F.F.F.F.D.V.V.D.{.{.",
"K.Z.B.B.S.F.F.(.D.(.D.D.J.D.D.'.D.{.K.K.K.OXoX_._.'._.F.S.A.A.A.V.b.A.D.D.D.D.D.F.D.V.V.V.b.b.V.F._.",
"D.K.K.C.C.S.S.F.F.K.K.Z.K.F.D.F.).oXOXOXK.C.D.oX_.].].S.C.V.m.A.b.b.D.F.F.D.F.F._.D.V.V.V.V.V.A.F._.",
"|.D.b.b.S.F.).).oXF.K.F.F.K.).'.'.'.).F.F.D.Z._.'.].).G.V.V.b.V.A.V.D._.F.D.F.F.F.F.D.D.D.D.D.D.D.D.",
"|.D.V.V.S.Z.).).].Z.F.Z.C.F.).'._._.].oXF.F.).oX@X@X].F.Z.C.V.D.F.D.F.{.F.D.F.F.D.D.F.D.A.V.V.A.F._.",
"D.F.F.C.V.V.D.F.F.oXF.F.C.D.F.F.F.F.).#X}.F.oXoX}.{.).F.F.D.D.F.F.F.F.F.D.F.D.V.D.F.D.D.Z.C.C.D.{.{.",
"Z.F.F.C.V.V.D.F.D.{.F.F.D.D.F.F.F.F.{.#X{.F.}.oXoX}.{.{.oX{.F.K.F.F.F.F.F.F.D.V.D.D.D.V.S.C.C.Z.F.F."
};
