/* XPM */
static char *_8c795e39a464d4cb359a2d8d2c2a556MXudTw09MRcqg8s7[] = {
/* columns rows colors chars-per-pixel */
"50 50 224 2 ",
"   c #020103",
".  c #0A0304",
"X  c #0B0B09",
"o  c #140A03",
"O  c #140F0B",
"+  c #1B1202",
"@  c #1B130C",
"#  c #19140B",
"$  c #191914",
"%  c #231905",
"&  c #241B0E",
"*  c #251808",
"=  c #231B13",
"-  c #281C18",
";  c #1F211E",
":  c #2D220B",
">  c #26221D",
",  c #2C251D",
"<  c #2B2418",
"1  c #342A1D",
"2  c #3B2D1D",
"3  c #342716",
"4  c #38301D",
"5  c #242323",
"6  c #2B2221",
"7  c #2C2A23",
"8  c #2A2728",
"9  c #2E2F2C",
"0  c #332B22",
"q  c #3A2D23",
"w  c #332E2A",
"e  c #342B25",
"r  c #363025",
"t  c #3B3325",
"y  c #3B352D",
"u  c #3B3B2D",
"i  c #37352C",
"p  c #3A3633",
"a  c #373832",
"s  c #3C3A34",
"d  c #3D3C3A",
"f  c #373536",
"g  c #4A3809",
"h  c #402C14",
"j  c #47391F",
"k  c #543D1B",
"l  c #433421",
"z  c #443924",
"x  c #453D2D",
"c  c #483A28",
"v  c #413C34",
"b  c #493F35",
"n  c #433C3A",
"m  c #413633",
"M  c #4B4013",
"N  c #524115",
"B  c #6B6216",
"V  c #777018",
"C  c #574429",
"Z  c #444236",
"A  c #4A4335",
"S  c #45433B",
"D  c #4D453C",
"F  c #4D4A3E",
"G  c #47493C",
"H  c #5C4D35",
"J  c #53463B",
"K  c #514A3F",
"L  c #5B4E3C",
"P  c #534334",
"I  c #5D513D",
"U  c #575036",
"Y  c #4A4027",
"T  c #61543B",
"R  c #695738",
"E  c #79702D",
"W  c #756F3F",
"Q  c #767535",
"!  c #3E3D42",
"~  c #403940",
"^  c #444342",
"/  c #4A4643",
"(  c #464844",
")  c #4D4A44",
"_  c #4B474A",
"`  c #4D4B4A",
"'  c #474749",
"]  c #524B44",
"[  c #524D4A",
"{  c #5A4F43",
"}  c #4F5147",
"|  c #535245",
" . c #54524D",
".. c #5B554C",
"X. c #5B5A4D",
"o. c #5C5745",
"O. c #4D4C52",
"+. c #555551",
"@. c #5A5553",
"#. c #5B5A54",
"$. c #5D5B5B",
"%. c #565657",
"&. c #655B47",
"*. c #6D5E45",
"=. c #62574B",
"-. c #665846",
";. c #705E49",
":. c #675E56",
">. c #6B6444",
",. c #6C634B",
"<. c #72644C",
"1. c #74684A",
"2. c #787549",
"3. c #6E6354",
"4. c #66615C",
"5. c #726553",
"6. c #746953",
"7. c #7D6D55",
"8. c #796C5C",
"9. c #585862",
"0. c #625F65",
"q. c #6D656B",
"w. c #686466",
"e. c #716C6C",
"r. c #7B7066",
"t. c #6D6B73",
"y. c #706D74",
"u. c #79777A",
"i. c #797575",
"p. c #827E34",
"a. c #806C53",
"s. c #827355",
"d. c #85745B",
"f. c #8A7A58",
"g. c #91795D",
"h. c #897662",
"j. c #8D7C65",
"k. c #847866",
"l. c #937F66",
"z. c #9C834E",
"x. c #95814E",
"c. c #968154",
"v. c #9E8453",
"b. c #9F8855",
"n. c #9C835B",
"m. c #9D895D",
"M. c #97845C",
"N. c #8F8C52",
"B. c #A2824F",
"V. c #A1884F",
"C. c #A28555",
"Z. c #A98657",
"A. c #A48955",
"S. c #AA8B55",
"D. c #A4865A",
"F. c #A9865B",
"G. c #A68A5B",
"H. c #AA8C5D",
"J. c #B08B5E",
"K. c #A7915A",
"L. c #AC915D",
"P. c #A59156",
"I. c #B1915F",
"U. c #B5B658",
"Y. c #9C8767",
"T. c #9C8B64",
"R. c #9D8C6B",
"E. c #96876A",
"W. c #9D8E74",
"Q. c #9D8E79",
"!. c #958673",
"~. c #9E9171",
"^. c #A58660",
"/. c #A48C63",
"(. c #AD8E62",
"). c #AC8E61",
"_. c #A28D6B",
"`. c #AB8F69",
"'. c #AB8662",
"]. c #B18E62",
"[. c #A69165",
"{. c #AC9061",
"}. c #AD9162",
"|. c #AE9262",
" X c #AF9364",
".X c #AD9162",
"XX c #A5926C",
"oX c #AB926B",
"OX c #B09465",
"+X c #B19364",
"@X c #B59966",
"#X c #B3956B",
"$X c #B49A6C",
"%X c #B89A6C",
"&X c #B99966",
"*X c #A28E73",
"=X c #A08F7D",
"-X c #A49373",
";X c #AC9573",
":X c #AC9977",
">X c #A5937A",
",X c #AB9679",
"<X c #AD997D",
"1X c #B39672",
"2X c #B49B73",
"3X c #B39C7A",
"4X c #BD9C78",
"5X c #BEA071",
"6X c #C09F7C",
"7X c #C4A67B",
"8X c #BFC063",
"9X c #D2D265",
"0X c #DAD973",
"qX c #CECB6A",
"wX c #E9E971",
"eX c #7E7D82",
"rX c #7A7A85",
"tX c #838184",
"yX c #8C898B",
"uX c #8A8B96",
"iX c #959498",
"pX c #B29A80",
"aX c #AC9880",
"sX c #9C9CA8",
/* pixels */
").{.H.G.G.G.H.H.{.H.G.C.C.C.G.G.'.'.(.+X+XH.L.{.H.).{.@X{.L.{.G.F.H.H.].H.G.C.G.D.A.A.z.z.C.A.A.G.G.",
"H.H.H.H.H.H.H.H.OXH.G.H.H.G.G.H.F.'.H.(.H.L.L.L.H.H.H.).H.H.H.D.D.G.H.G.C.C.D.F.D.C.C.B.v.C.D.A.G.G.",
"{.{.H.G.G.H.).{.@X{.{.OXOXH.G.G.G.L.L.L.H.H.H.H.C.G.F.'.(.).H.S.A.A.S.D.A.G.H.D.A.A.C.C.C.D.G.G.H.H.",
"OX X{.H.G.G.H.H.{.).{.OXOX).H.H.K.K.K.K.G.H.G.D.v.C.D.F.'.H.H.A.v.x.C.C.D.D.D.D.G.A.C.D.D.F.F.F.).{.",
"{.{.{.{.H.G.D.C.D.G.H.H.H.H.H.H.K.P.K.K.H.D.D.D.v.v.C.G.H.G.H.D.b.m.G.G.G.D.v.{.H.H.G.D.D.C.C.F.).{.",
"{.{.{.).H.G.D.D.G.H.H.G.G.G.G.G.G.A.G.H.G.D.D.G.H.D.D..X/.m._.T.T.T._././.oX/.oX@X+XH.H.D.v.C.F.H.H.",
"OX{.{.H.G.C.G.H.).H.H.G.G.G.G.G.).(.(.(.H.H.).(. X[.oX;Xf.>.,.,.*.*.*.*.*.R.;XoX@X X+XL.G.C.C.G.H.H.",
" X X X{.H.G.G.H.H.D.C.G.H.H.H.).#X%X#X].H.H.+X+X#X;X3XW.L < = = < & & % * 7.,X;XoX(.L.I.H.C.C.G.H.{.",
"{.{.H.G.G.H.H.G.C.C.C.C.G.).{. X#X+X+XH.S.S.H.(.`.<XQ.z m [ ) ` [ / n y 0 1 H <XoX/.G.L.A.A.+X|.{.{.",
"{.H.G.G.G.G.G.D.G.C.C.C.G.{.{.).(.{.+XH.S.H.L. X;Xg.*.j U o. .#.@.#.[ ^ s 0 2 <._.[.H.G.G.L.$X@XOX{.",
"{.H.G.G.H.G.G.G.G.G.D.D.G.H.H.G.H..X XL.L.L.{..X_.k g E p.Q >.X...#.@. .d i 1 * f././.D.H.OX$X$XOX{.",
").H.G.G.G.G.G.G.G.H.H.H.G.G.G.G.G..XoX.XL.L.{./._.g B 0X9XU.N.,.X. .+. .a a t o 1.T.^.D.).$X2X#X X{.",
"G.G.G.C.D.G.G.C.G.H.{.{.H.G.G.H.G..XoX`..X.X.X/._.N V wXwX9XN.1.o.X. .} d a 0 % s._./.n.H.%X#X X{.{.",
"C.G.G.C.C.G.G.C.G.G.G.H.{.H.H.H.H.H.`.`..X.X[./.M.g B qX0X8XN.>.{ ..@.| d s , + 7._.^.D.D.+X#X X{.H.",
"C.G.H.G.G.G.G.D.G.C.C.G.H.G.G.H.H.H.+X+X{.H.G.m.m.N M W 2.2.>.&.=.o.#.[ s p , & d./.^.H.B.H.+X{.H.G.",
"C.D.G.H.G.G.G.G.G.G.G.H.G.D.G.(.H.H.I.+XL.G.C.n.m.f.T z A K X.o.o...[ / s w t 3.-XXXC.G.C.@X&XH.G.C.",
"G.D.G.H.H.H.H.H.G.G.G.G.+XH.Z.H.G.H.H.G.].J.F.F.D._.l.l 1 v G |  .| Z p w = q >XT.H.v.A.G.{.$XH.G.G.",
"(.H.H.{.(.H.).).G.G.v.{.{.D.+XH.G.H.G.D.F.G.F.'.^._.>X!.A $ $ 9 d S s 7 @ o q Q.XXx.G.+X$X#X@XG.H.H.",
"+X(.(.{.{.{.{.H.H..X/..X/.G.G./.H.K.G.A.C.C.D.G./.-XW.Q.D O $ 9 a a v s > O t !.-XM. X@X%X#X#X+X+X+X",
"{.(.(.{.).{..X/.m./.oXR f.E.-XE.R.T.T.m.m.T.T.T.R.H : 3 D / s f p p /  . .S e 1 j.3X2X@XOX$X%X#X+X+X",
"H.H.H.{.{.@X$XoX,X,X7.<.5.3.3.8.6.6.6.<.<.6.6.6.,.x u v 4.i.w.' p n [  . . .G e P d.3X$X X$X#X(.).H.",
"A.G.H.{. X2X2X3X<Xd.3 r.4.7 8 w 0 0 0 7 , , , > i  .4.w.u.tXu.$.` ' @.$.#.#. .n - 2 *XoX{.{.(.'.G.G.",
"A.G.H.H. X2X3X3X,Xh.2 k.e.e.t.w.q.q.e.q.q.q.y.t.t.tXu.eXeXeXtXtXu.i.u.e.#.|  .v - - *XoXL.H.H.F.G.G.",
"G.H.H.(. X$X2X;X;X,Xj.L b n s n n n n n ~ O.0.t.rXuXsXuXt.t.iXiXyX0.@.#.X.F / p - q *X/.A.A.H.H.H.G.",
"{.{.H.G.D.(.OX@X XoX_.R j j z l l c z x = # _ %.9.eXiXuXO.$.yXiXtX' n S | G s p 6 & >X[.A.A.D.H.).(.",
"+X XH.D.D.H.L.L.H.H..X[.T.T.T.R.T._.R.E.&.& w s f 5 ! %.' d ( :.$. ...` | Z i i - l _..XA.S.D.G.{.+X",
"$X@X{.G.D.G.H.H.+XL.G..X/..X/./..Xc./.-X-X7.2 = = X >  .G i i S / ) ) G F Z t , { h.:X XL.L.H.+X+XOX",
"@XOX{.G.D.D.G.G.+X@XG.D.D. X#XoX{.v./.oX:X,XC 3 3 1 y A Z u u s d d s u u u q + 6.>X1X XL.L.H.H.{. X",
"+X+X+XH.D.D.D.H.%X@X).`.%X`.1X1X#X#X`.2X1X3X;X,X-XW.k.4 Z ] | | ] ) v u i y 1 % d._..XL.|.L.H.G.(.(.",
"H.(.{.H.G.C.D.H. X^.`.#X7X4X6X4X`.(.%X2X%XoXoX/._.*XW.6.A A F G [ ] p i p 0 t ,.R.[..XL.{.{.+X(.(.(.",
"G.G.G.G.C.v.C.G.G.G.).H.$X7X7X$X#X X5X+X+X+XH.H.G./.-X>XJ , p n p n p d p - y Q.T.G.G.{. X(.(.).(.(.",
"{.H.G.G.G.G.G.H.D.G.G.G.{.7X5XOX^.#X#X&X+XB.B.G.G.;X>X5.J n [ _ ` ] ) [ ] m q *.R.[.D.OX X#X+X+X(.(.",
"G.H.G.v.C.{.$X$XH.G.H.).G.G.H.G.`.`.+X+X+XS.C.n.Y.>Xr.q ]  .@. .[ | [ @.@.] m < *.-XXXoXG.).].H.(.H.",
"G.G.C.C.G.H. XOX{.H.).).G.G.H.G././.(.H.Z.H.F./.E.I A / #. . .n s a ) @.@.@.[ y 1 Y ~.XX/.).G.H.H.H.",
"G.C.C.G.G.H.H.{. X).).).H.H.H.G.D.D.G.H.C.G.D.T.1.x v  .+.+. .S 7 $ d  .+.+.@.F t 3 >.T./. X+X+XH.H.",
"H.G.D.G.G.G.G.).{.{.{.{.).H.H.G.G.A.H.H.A.D.m.f.: D X.+.+.+./ S 7 X 7 ^ #.#.#...F t % >.M..X{.+XH.H.",
"G.G.H.H.G.G.G.H.).{.{.{.{.H.G.G.G.A.A.A.A.c.T.s.+ Z #.+.+.` n s 5   X ; ( +.+. .) e + T -XoX{.@X+X{.",
"G.H.{.{.{.).H.H.{. X X{.).G.C.C.A.A.A.v.m.c.R.k.@ = f ^ ^ S s > $       5 d ( ` n 7 & &.-XT.).H.+X(.",
"H.{.OXOXOX X{.{.{.OX{.H.H.G.v.C.G.G.G.D./._.j.8.@ O 8 d d s i O     X X $ 5 d d ^ p @ 3.*XXX$X@X{.{.",
"{.).{.OXOX X XOX{. XH.G.H.G.v.C.C.C.C.G.n.Y.R A A / _ [ [ / r = . . 6 S S /  .` [ S = ;.aX3X#X@XOX X",
"H.H.H.{.OX{.H.H.{.H.L.L.H.H.G.C.C.G.v.n.n.Y.h 3 J K J ] ] x x 3.=.o , { D D K K ] b & ;.pX3X#X@XOX{.",
"{.{.H.H.{.H.G.H.H.H.H.H.H.G.C.G.D.D.C.D.n./.C j L -.-.I I H <.W.=XP c H T T I L I L l a._.oX@X&XOX X",
"{.{.H.H.H.G.C.G.H.H.H.H.G.C.C.G.H.D.C.C.D.2X;X3X,X,X-X-X-XR.M.T.Y.Y.-X-XXX,X-X,X-X<X-X3X/.C.S.H.@XOX",
"{.H.G.G.G.G.C.G.G.G.G.H.G.C.C.H.G.A.L.{.G.OX$X1XoXoXoX/.m.G.m.H././././././././.oXoX/..Xv.A.S.S.{.{.",
"H.H.G.G.G.G.G.G.G.G.G.H.H.G.G.H.L.L.H.H.|.{.@X@XD.'.+X).C.v.v.v.x.v.C.G.G.C.G.G.H.G.v.v.z.A.B.A.H.).",
"H.H.G.A.G.H.H.H.{.H.H.H.H.H.H.H.H.{. X{.OXH.H.G.(.H.H.C.C.G.C.v.C.C.C.G.G.H.].G.H.H.G.C.C.C.C.G.H.H.",
"H.H.C.C.G.H.H.L.{.{.H.H.H.H.H.H.).).OX{.H.A.H.H.+X].].H.D.D.v.D.A.z.A.+X+XH.F.H.H.G.C.C.G.G.F.F.G.G.",
"H.H.C.v.C.G.H.L.{.{.H.G.G.H.{.).G.D. X@XH.H.{.{.@X+X].H.H.G.C.G.G.L.{.G.G.).F.H.D.G.H.H.D.n.^.F.H.).",
"G.H.H.D.C.D.G.H.H.OXH.H.A.G.H.H.H.G.{.$X XH.OXOX+X+X(.H.H.G.G.H.H.H.H.H.G.H.G.D.H.H.G.G.G.D.D.G.{.{.",
"G.H.H.D.C.D.G.H.G.{.H.H.G.G.H.H.H.H.{.$X{.H. XOXOX X{.{.OX{.H.L.H.H.H.H.H.H.G.C.G.G.G.C.D.D.D.G.H.H."
};
