/* XPM */
static char *_cf03550052c4f09f8234ca91285de13dv6UGFoJp60UAPgm[] = {
/* columns rows colors chars-per-pixel */
"50 50 135 2 ",
"   c #151117",
".  c #161318",
"X  c #1A161C",
"o  c #1D191E",
"O  c #1E1A21",
"+  c #211D24",
"@  c #231F28",
"#  c #242027",
"$  c #262229",
"%  c #29262D",
"&  c #2C282F",
"*  c #262631",
"=  c #2E2A31",
"-  c #312E35",
";  c #343037",
":  c #363239",
">  c #3A373E",
",  c #3B373E",
"<  c #3A363E",
"1  c #39353D",
"2  c #3C373F",
"3  c #39353D",
"4  c #3B383E",
"5  c #3C383F",
"6  c #3C393F",
"7  c #3C383F",
"8  c #3C3840",
"9  c #3C3940",
"0  c #3D3940",
"q  c #3D3941",
"w  c #3D3A40",
"e  c #3D3A41",
"r  c #3E3A41",
"t  c #3E3A42",
"y  c #3E3B42",
"u  c #3F3B42",
"i  c #3F3B43",
"p  c #3F3C44",
"a  c #3E3A41",
"s  c #403C42",
"d  c #413D42",
"f  c #403C43",
"g  c #403D43",
"h  c #413D44",
"j  c #423D44",
"k  c #423E44",
"l  c #423E46",
"z  c #433F46",
"x  c #433F47",
"c  c #443F45",
"v  c #413E44",
"b  c #434046",
"n  c #444046",
"m  c #454147",
"M  c #444047",
"N  c #454249",
"B  c #464248",
"V  c #464249",
"C  c #474349",
"Z  c #46414A",
"A  c #45434A",
"S  c #46424A",
"D  c #46434A",
"F  c #47444A",
"G  c #46454E",
"H  c #464249",
"J  c #48444A",
"K  c #49444A",
"L  c #49444B",
"P  c #48454C",
"I  c #4B474E",
"U  c #4A464C",
"Y  c #4C484E",
"T  c #4C494F",
"R  c #4E494F",
"E  c #4D484E",
"W  c #4C4950",
"Q  c #4E4950",
"!  c #4E4A50",
"~  c #4E4A51",
"^  c #4E4B51",
"/  c #4F4B51",
"(  c #504C52",
")  c #524C52",
"_  c #514E54",
"`  c #524E53",
"'  c #535057",
"]  c #565156",
"[  c #555156",
"{  c #565259",
"}  c #565259",
"|  c #585258",
" . c #5B555A",
".. c #5A555A",
"X. c #5C585E",
"o. c #5E595F",
"O. c #5D595E",
"+. c #5E5A61",
"@. c #5E5A62",
"#. c #5F5C61",
"$. c #5E5A60",
"%. c #625B60",
"&. c #605C62",
"*. c #625E63",
"=. c #635E64",
"-. c #635E63",
";. c #666065",
":. c #656266",
">. c #656065",
",. c #696367",
"<. c #676268",
"1. c #676368",
"2. c #66646A",
"3. c #69666C",
"4. c #6F686C",
"5. c #706B6E",
"6. c #716B6E",
"7. c #6F6A70",
"8. c #63647E",
"9. c #776F72",
"0. c #716C72",
"q. c #747175",
"w. c #757176",
"e. c #797276",
"r. c #767278",
"t. c #7B767A",
"y. c #847D7F",
"u. c #827A7E",
"i. c #7E7883",
"p. c #837E83",
"a. c #878286",
"s. c #878084",
"d. c #868288",
"f. c #808197",
"g. c #959194",
/* pixels */
"$ $ @ O + = - = % = % X @ + o - N ^ F & f ^ m 5 ; - = @ + X $ 1 9 9 1 m L = N -.h & ; + o @ % ; % $ ",
"O O o X # = = $ $ $ X @ 9 1 $ O = - # #.=.^ I h ; - - = @ o + % 1 9 9 L <.o.- 1 - I b O X o % % + O ",
"X X o O $ = % $ #   % b h ; $ + o X ; +.a.<.T h 1 - = - = O o # = 1 ) o.q.;.* G h 1 $ X + X X X X X ",
"+ o O @ % - = $ o ; T f ; % # % @ O - - h { ^ N ; - - ; 5 = X + % 1 -.f ; 4 N h 1 & O O O O O # @ O ",
"- $ X @ - - % X = N f ; - % = = @ o % - = % = 9 9 1 1 h N T $ X % & # - ` ^ N f - $ O $ @ @ # ; - % ",
"- = o & - = $ X O 1 9 ; - = = = $ o + = = = % - L T ) | %.;.c X + + $ = 1 ^ h 1 = + + % % $ = - % - ",
"- - $ 9 & $ @ o X @ 1 9 ; - = = $ o X # $ % % = 1  .9.y.5.] ; O o o % & = 9 f = @ O @ = ; - - % % ; ",
"- & X @ % # o X + o O - ; - = - $ X X X o O $ = = ; T h 1 = o o + o X $ % $ @ O o @ = 9 4 - % @ $ - ",
"- - O   + o X + + o X o - ; - ; % X $ $ + o o # = = % $ @ X o + O o o X @ @ O O O = 9 9 ; % % @ @ = ",
"- = O X X X + o O $ $ o # ; ; ; - O = ; - % @ X O $ # o X X O & - $ + o X X o X $ 9 1 ; = & $ = - % ",
"- O X O + + o $ - ; ; O o - 9 1 ; @ - 1 f ; = # o o X X o O + - 9 ; = % # o o O $ ' 9 = = % = - ; % ",
"@ X X O + o = 9 ; - - O X $ 9 N p = 9 2 9 ; ; ; = O o O o @ 9 h 9 1 ; - = @ o + + 5 +.- % - - ; 1 1 ",
"@ o X o X O = = - ; - @ X @ % - N Y { h 9 1 1 h ) ) $ o O + ) ] 9 1 1 - % @ O o @ % h 1 ; ; ; 1 1 = ",
"@ X O % $ o O # # - = @ X O $ % # - N ; ; 1 T 4.u.T @ O o + 9 h % % 1 N $ o O o O $ & ; c I T 9 % # ",
"X O % - 1 % X O $ $ $ @ o O o + @ o @ % % $ T e.&   o X o O o + $ $ $ @ o o X X o @ @ $ ) ,.f ; $ O ",
"O $ - 1 1 ; $ X O $ # O o O # @ O o O @ @ # $ O   + # $ # + o X o O O o o o @ + X O @ $ 1 = X @ O X ",
"= N N 9 5 - = $ o o O X o # - % $ # + O X X o o @ - - - - = = $ O o O o O $ - = % + o @ @ O O X X + ",
"9  .Y m i - = = $ o X X + $ = % $ $ # @ + X X o & ; ; ; ; - ; 1 - $ o $ ; 4 ; - 1 ; & O o O X X @ % ",
"h T L L b ; - % $ @ O O X & % $ $ $ # # $ @ o o # $ 9 9 5 ; ; 1 1 1 = ; N h h 1 1 9 9 1 + X X + @ - ",
"I I L ^ h 1 = % $ O % I 5 + o O @ # # # @ O X O + $ % 9 f 9 b 4 9 9 1 - L m T 5 1 9 f ; + o o O @ ; ",
") ` ) ` N 1 = % @ O 1 )  .m ; # X o O O O X o + O @ % - N ) F T ^ I h - N I L N I i 1 # X @ + o $ i ",
"T  .o.{ I - $ $ @ @ i N L N N 9 % $ o @ = & $ o o o % = 1  . . .,.;.+.9 _ =. .` i % O X @ % + o - T ",
") ) X.) 1 % # $ @ & h h 9 f f 1 = $ + = 1 9 f ; @ o O % - ,.0.i.d.{ ^ = T | 1 % O X X o @ = @ o ; L ",
"I ..h - - & % $ O - h h ; - 1 - & O @ 1 h h h m 9 & o o + ' f.8.1 @ # $ X X X X o o O + o - & X $ = ",
"# ; - = $ % % # + ; 9 9 - = - % @ O % 9 I 9 1 1 9 h 5 $ X # e O @ $ $ @ X o @ $ % & @ o X $ = + O # ",
"O O + o O $ % + $ 1 1 - = - = $ @ + - ^ ] h 9 ; 9 L T ] 1 X + $ $ @ X X @ $ = = - ; ; % o X O O X O ",
"- % $ + o o O o % ; 1 = = = $ @ + + - N ] T N m ) ]  .-.;.1 O @ O o # = - - - - ; 5 5 1 $ = % o O - ",
"1 1 1 1 $ X X o = 1 ; = % % # + o + % % 1 o.5.;.;.9.u.a.t.] X O % @ ; ; ; 5 9 h m I I N = ; ; - @ - ",
"h 9 1 ; + X X + = ; = = = % O o X   O & % h -.I I t.g.-.; X $ 9 N L - 1 f h I T ^ _ ) I 1 ; - - $ ; ",
"0.I 3.F   X X + % & = = $ o     # ; + X $ @ $ - = = = X   O - 1 ; o.^ = h  .) | | ] I h 1 - = = $ ; ",
"4 - p 5 X X o o O # $ +   X & N ,.6.T $ X O # $ $ + X X @ # = 1 1 1 I { - 2.q.) ] T h 1 = = = = = o ",
"^ - % @ O X O + O o X X = ^  .-.+.` ^ N & . X X X X X @ # = 1 1 h I Y { ] ; { 0.^ N f 1 = = & = = @ ",
"T = = $ o o + + o + + X -.7.m N I L m 9 9 % X O + O @ % ; f 9 9 h N I ] -.] $ 9 ^ m 1 - = - % $ @ $ ",
"- = & $ o o O o = 1 $   1 +.9 f f 9 h 1 ; - + + + o O % = - - ; 1 ; 1 h i h T $ - 9 - = = - @ O o $ ",
"- = = % $ X o - Y i @ o X 1 f 9 9 5 9 1 ; % $ % $ + X o O @ # = ; = ; 9 h h N h $ - - & % % O O X $ ",
"- - - = & X % N I 9 O O o $ 9 1 - = - - & o $ $ O o o + O O O $ ; 1 1 1 1 4 h 9 % - - @ O + O X O # ",
"; 1 - = % o = f 9 = O O + + ; ; = = = @ o O O + o X X o O o O # - 4 9 4 1 9 1 $ = - = + X o X o @ - ",
"9 1 ; = $ O O $ % % @ X + o $ - = = $ X @ & % $ + + O o X X o + $ - ; ; ; 9 & $ - = @ X o + + o $ h ",
"h ; - = $ O o o O + + @ + O X $ = % + X @ % & % $ % $ $ $ O X o O $ % $ $ % O # % O X O @ # @ o @ ] ",
"L 1 ; - = + o o $ $ % - = = = O # - O X O $ 1 ; - % $ = = & O O + o o @ # O . O o X O + $ $ @ O $ { ",
"^ 1 1 1 1 $ o O - = $ & = ; 9 ` & X o o X - { I 9 - = - - ; ; o O + O o o X X X X o o + @ @ $ O @ { ",
") 9 1 9 N N + o % N - = ; 1 =.-.; X o o X $ 7.t.] ; - - ; 9 L 1 @ O + O + $ $ o o $ ; ; - + O o O ` ",
"N h h 9 ;.g.$ o + & 1 = ; r.p.9 1 % O o o $ I q.p.3.` L N _ | 9 $ X + O @ - - X O m ] ^ 5 - @ X X 1 ",
"= ; h 3.g.<.% o @ $ = = - I - o.N - $ o o = 1 9 ^ I h I 3.t. .% @ o O O o # O X + ; ..3.N 1 $ o O $ ",
"h f 1 9 N ; $ o + % = & 9 =.N -.N ; - # X = h i % + $ $ = - % $ O o o O O o O O o o % I I ; O X @ 5 ",
"i F 1 ; = # + o + % = = ; ;.5 N h 1 ; = o $ 9 ; % % @ @ # $ # O o o o @ % & = % o X X   O o o + & 1 ",
"h 1 ; - % # O o + $ = - 1 ` & 1 9 5 1 1 % o $ @ @ O X X X X X o o O $ = = % - - # o o O o X + $ ; 4 ",
"h 1 = $ @ @ o o @ & ; ; h  .% 1 5 9 5 1 - + X O X X X X X X o O $ = = - - $ - 1 9 @ o + O O @ = 9 b ",
"; 1 % # # o O O O O # = h ^ @ 1 f h f - % @ o O + + + + O O $ = - = - 1 1 % 1 N ` = X O o O @ = 4 1 ",
"$ = $ # O $ = & $ O O o X X # h N N i = + & 5 ; % % @ + O X - 9 1 1 ; 5 ; = 9 ) -.s   O o + % - ; = "
};
