/* XPM */
static char *_2c69331362b4c6b9cffe2a1816f4ac1VDE1XSTSDIpU9FPA[] = {
/* columns rows colors chars-per-pixel */
"50 50 202 2 ",
"   c #181F19",
".  c #32170E",
"X  c #182A14",
"o  c #103014",
"O  c #2A2018",
"+  c #353C1F",
"@  c #253621",
"#  c #3D3928",
"$  c #3D3C3A",
"%  c #451D10",
"&  c #46261A",
"*  c #44291E",
"=  c #5D2E1C",
"-  c #60311E",
";  c #482C20",
":  c #473925",
">  c #533926",
",  c #553F2C",
"<  c #6E3B24",
"1  c #18481F",
"2  c #1F4923",
"3  c #1D5624",
"4  c #284829",
"5  c #245A2A",
"6  c #275A2B",
"7  c #30502D",
"8  c #3A4838",
"9  c #395232",
"0  c #1F6A29",
"q  c #22632A",
"w  c #246C2D",
"e  c #24742E",
"r  c #2E6931",
"t  c #396535",
"y  c #277730",
"u  c #2B7633",
"i  c #267B31",
"p  c #2B7C34",
"a  c #38783A",
"s  c #4B4A33",
"d  c #4B453A",
"f  c #554835",
"g  c #47593A",
"h  c #57563C",
"j  c #6B442D",
"k  c #7A4429",
"l  c #674C36",
"z  c #65553C",
"x  c #7E5338",
"c  c #7B5A3D",
"v  c #46673D",
"b  c #53613F",
"n  c #57683E",
"m  c #42773F",
"M  c #63693E",
"N  c #3F7A47",
"B  c #4A4B4E",
"V  c #544C44",
"C  c #465548",
"Z  c #555447",
"A  c #595959",
"S  c #655C49",
"D  c #775744",
"F  c #715B4C",
"G  c #48674C",
"H  c #586643",
"J  c #5F6C48",
"K  c #4A7844",
"L  c #567445",
"P  c #587649",
"I  c #566D54",
"U  c #5A7151",
"Y  c #686746",
"T  c #636B4A",
"R  c #776748",
"E  c #6A724D",
"W  c #7E724F",
"Q  c #6C6C56",
"!  c #736651",
"~  c #776851",
"^  c #7B6C52",
"/  c #796E5E",
"(  c #6E7050",
")  c #737453",
"_  c #797758",
"`  c #5B5D60",
"'  c #626668",
"]  c #666568",
"[  c #6C6B6C",
"{  c #657B64",
"}  c #787469",
"|  c #706D70",
" . c #707577",
".. c #727679",
"X. c #777A7E",
"o. c #854C2F",
"O. c #89583A",
"+. c #945C3C",
"@. c #985A3A",
"#. c #9C613E",
"$. c #A1613F",
"%. c #895D40",
"&. c #905E40",
"*. c #856040",
"=. c #8E6C4F",
"-. c #88744F",
";. c #977C4F",
":. c #847354",
">. c #8A7654",
",. c #8E7855",
"<. c #84745B",
"1. c #8D795A",
"2. c #947C55",
"3. c #997E55",
"4. c #94705B",
"5. c #957E59",
"6. c #A66641",
"7. c #AB6A44",
"8. c #AB6C47",
"9. c #AC724F",
"0. c #B87F5B",
"q. c #897B65",
"w. c #887C71",
"e. c #278333",
"r. c #2A8435",
"t. c #2B8A37",
"y. c #2E8639",
"u. c #2D8D39",
"i. c #34833A",
"p. c #328C3C",
"a. c #2D943A",
"s. c #2F993C",
"d. c #36913E",
"f. c #319A3E",
"g. c #399440",
"h. c #498647",
"j. c #488349",
"k. c #528E51",
"l. c #558359",
"z. c #688067",
"x. c #7D8B6D",
"c. c #649B6B",
"v. c #85855F",
"b. c #9C8156",
"n. c #9D835A",
"m. c #97885D",
"M. c #92945E",
"N. c #A38656",
"B. c #A58857",
"V. c #A48759",
"C. c #A6895A",
"Z. c #AA8C5D",
"A. c #868660",
"S. c #8A8A64",
"D. c #8D8C6B",
"F. c #998564",
"G. c #9C9264",
"H. c #969961",
"J. c #91916C",
"K. c #888176",
"L. c #819372",
"P. c #899577",
"I. c #9A997A",
"U. c #A28962",
"Y. c #AC8F60",
"T. c #AE9162",
"R. c #AC936B",
"E. c #B19465",
"W. c #B29669",
"Q. c #B5996D",
"!. c #B79C72",
"~. c #B99D72",
"^. c #C28C68",
"/. c #C5906D",
"(. c #797C80",
"). c #9B9986",
"_. c #93928F",
"`. c #ACAA88",
"'. c #B2B08F",
"]. c #AAA999",
"[. c #BAB799",
"{. c #AAA8A7",
"}. c #BAB6A6",
"|. c #B5B5B4",
" X c #BEBDBC",
".X c #C2BEA4",
"XX c #98C59D",
"oX c #9CC8A1",
"OX c #A2C9A7",
"+X c #A5CBA9",
"@X c #C4C1A3",
"#X c #CBC6AB",
"$X c #CECAAE",
"%X c #D0CDAF",
"&X c #D2CEB1",
"*X c #D5D0B3",
"=X c #C7C7C7",
"-X c #D6D6D6",
";X c #E9E9E9",
":X c #F4F5F5",
">X c #FAFAFB",
",X c #FEFEFE",
/* pixels */
"Z.Y.Z.C.B.C.Z.Z.T.T.C.C.N.B.2.:.Z.C.Z.T.T.Y.Y.Y.Z.Z.T.E.T.T.Z.C.C.C.Z.Z.>.>.N.N.N.N.N.b.N.N.B.B.C.C.",
"Z.Z.Z.C.C.Z.Z.Y.T.Y.C.Z.Z.V./ / C.C.Z.T.Y.Z.Y.T.V.n.n.V.C.Z.Z.C.N.C.C.C.z ! V.N.N.B.N.N.N.N.N.C.C.C.",
"Y.Y.Z.Z.Z.Z.Z.T.E.Y.T.T.E.n.].K.b.Z.Z.Z.Z.Z.n.R l , , , z R n.C.N.N.N.N.! {.F.N.N.B.N.N.N.N.C.C.C.Z.",
"E.E.T.Z.Z.C.Z.Z.Y.Y.T.T.T.F.-X{.! b.C.Z.V.-.l j +.6.6.6.&.j z ,.N.;.;.:._.;XF.N.C.C.N.N.N.N.N.C.Z.T.",
"E.E.T.Y.Z.C.C.C.C.Z.Z.Z.Z.F.-X>X|.} } R f x #.7.7.7.7.9.^.^.=.l R } } {.;X;XF.C.Z.Z.C.N.N.N.N.B.Z.T.",
"T.T.T.Y.Z.N.N.C.C.Z.Z.C.C.n.}.,X,X,X-XA j 7.7.7.7.7.7.7.8.0./.0.D  X>X,X,X=X:.T.T.T.Z.C.C.N.N.V.Z.Z.",
"T.T.T.Z.C.B.C.Z.Z.Z.C.C.C.C.<.|.>X,X;X4.6.7.7.7.7.7.7.7.7.7.8.0.9.w.:X,X=Xq.V.E.E.T.T.Z.C.N.N.C.Z.Z.",
"T.T.T.Z.C.C.C.Z.C.C.N.C.C.Z.C.<._.=X[ S F F F F F F F F F F F F F V |.{./ n.Y.E.T.Y.T.T.C.V.N.C.Z.Y.",
"Y.Y.Z.Z.C.C.Z.C.N.N.N.N.C.Z.T.Y.1.d A .... ............... . .....' $ ~ n.C.Z.T.T.Z.Z.Z.C.C.Y.E.E.T.",
"Y.Z.C.C.C.C.C.B.N.N.N.N.C.Z.Z.Y H f A (.(.` B ' X.X.(.X.' B ' (.(.' # S R C.Z.Y.Y.Z.Z.C.Z.T.Q.Q.E.T.",
"Y.Z.C.C.C.C.B.C.C.C.B.N.C.Z.b.v p 5 G { z.I @   C l.l.8 X 4 I z.{ C 4 w M C.C.Z.Z.Z.C.C.Z.E.Q.Q.E.E.",
"Z.Z.C.C.C.C.C.C.C.Z.Z.C.C.C.V.L a.t.p.d.g.g.p 3 3 a.t.1 5 p.g.g.d.p y.r.M Z.C.C.Z.Z.C.B.Y.Q.Q.W.E.T.",
"C.C.C.C.B.C.C.B.C.Z.Z.T.Z.C.Z.) u 0 t.s.s.s.q o u.s.s.q o u.s.s.s.e.0 r R Z.Z.C.Z.C.C.V.Y.Q.Q.E.T.Y.",
"C.B.C.C.N.B.N.N.C.C.C.Z.Z.Z.Z.n.v e a.s.s.s.u.r.f.f.f.u.e.a.s.s.s.e w v C.T.Z.Z.Z.Z.C.B.B.T.E.T.T.Z.",
"N.B.Z.C.B.C.B.N.C.N.N.C.Z.C.C.Z.W 7 e u.s.s.a.c.+XOX+X+Xl.u.s.s.a.i 5 ^ T.T.T.T.T.Z.C.N.V.T.E.Y.Z.C.",
"N.C.C.C.C.C.C.C.C.C.B.C.C.C.C.Z.Z.,.h r s.s.i C ] A ] ] C t.s.s.i.g :.C.Z.T.T.T.T.Z.C.N.N.T.W.Y.C.N.",
"C.C.C.Z.C.Z.Z.Z.C.C.C.Z.Z.Z.C.C.Z.Z.Y.T p s.e.C [ ] [ | C t.s.y.b V.Y.Z.Z.Z.Z.Z.C.C.N.C.C.T.E.Z.C.C.",
"Z.Z.Z.Y.Z.Z.Z.Z.Z.C.C.Z.Z.Z.C.C.Z.Z.C.n.b w a.k.XXXXoXoXk.a.y g 5.C.Z.Z.Z.C.C.C.C.V.B.Y.W.W.E.Z.Z.Z.",
"T.T.T.T.T.Y.Z.Z.Z.C.Z.T.Z.C.C.C.Z.Z.C.B.3.z t a.s.s.s.s.a.r h 2.N.B.C.C.C.C.C.C.C.C.T.Q.Q.W.E.E.T.T.",
"Y.Y.Y.T.T.Y.Y.Y.Z.T.E.T.C.C.C.C.Z.C.C.V.n.n.R 2 3 3 5 q 1 s b.n.V.C.C.C.Z.Z.C.C.T.Q.Q.Q.W.W.W.E.T.T.",
"Z.Z.Z.Y.T.W.Q.W.E.E.T.Z.C.C.C.C.Z.C.Z.S d S V 5 e e y u e 9 S d # 2.Z.C.Z.Y.Z.C.T.W.E.E.E.W.W.T.Z.Z.",
"C.C.Z.Y.E.Q.!.Q.W.E.T.Z.C.N.C.Z.Z.N.Y g ).$X[.j.s.f.s.s.i.P.#XD.@ g 2.Z.Z.Z.C.C.Z.Z.Y.T.T.T.T.Z.C.C.",
"C.C.Z.Y.E.!.!.Q.W.T.Y.C.C.C.C.Z.C.n y K #X*X*XL.p s.s.u.U @X&XI.L p t 2.Z.Z.C.C.Z.Z.Z.Z.Z.Z.Z.C.C.C.",
"C.Z.Z.Y.T.Q.Q.W.E.Y.C.B.C.C.C.C.Y u a.l.$X*X*X.XU i e.t '.*X@XD.E p.t.H n.C.C.C.Z.Z.Z.C.C.C.C.C.Z.Z.",
"T.Y.Z.C.C.Y.E.E.T.Z.C.C.C.N.C.,.a s.u.x.*X*X*X*X}.Q Z ).*X*X[.S.J t.f.p Y N.N.N.N.C.C.C.C.C.C.C.Z.T.",
"E.T.Z.B.V.Z.T.T.Y.Z.Z.C.C.N.N.Y y.s.u.L.*X*X*X*X*X&X&X*X*X*X'.A.J t.s.a.n b.N.N.N.C.Z.Z.Z.C.C.Z.T.E.",
"W.E.Y.C.B.C.Y.Z.Y.Z.Z.Z.C.C.V.L s.s.u.L.*X*X*X*X*X*X*X*X*X@XJ.v.J t.s.s.a ,.N.N.C.Y.T.T.E.Z.Z.Y.T.E.",
"E.E.T.Z.C.C.C.Z.E.T.C.Z.Z.Y.5.a s.s.u.L.*X*X*X*X*X*X*X*X%XI.v.A.T y.s.s.i.R N.C.Z.T.E.E.T.Z.Z.Z.T.E.",
"E.T.T.Z.C.B.B.Y.Q.R.Z.Y.T.T.J t.s.s.i x.*X*X*X*X*X*X*X*X'.S.v.A.( a s.s.a.v n.Z.Z.Y.T.T.E.T.Z.Z.Z.T.",
"Z.Z.Z.Z.C.N.V.Y.T.Y.Z.T.~.R.m s.s.r.4 } *X*X*X*X*X*X&X[.D.v.v.A.( 7 r.s.s.a -.T.Z.Z.Z.T.E.E.Y.Z.Z.Z.",
"Z.Z.C.C.C.N.N.B.C.C.Z.Y.!.J.y.s.a.L ^ I.*X*X*X*X*X&X'.S.v.v.v.A._ ^ b r.s.u.E Y.C.C.Z.T.E.E.Z.Z.Y.Z.",
"Z.Z.C.C.N.B.Z.Z.C.C.Z.Y.R.A.p.s.i.m.5.).*X*X*X*X$X'.S.v.v.v.v.A._ >.2.5 a.a.P Z.Z.Z.Z.T.T.T.Y.Y.Z.Z.",
"Z.Z.B.N.N.Z.Q.W.Z.Z.Z.Y.Y.( p.a.P Y.1.).*X*X&X@XI.A.v.v.v.v.v.A._ >.Z.H u.a.P Z.Z.Z.Z.Y.Z.Z.Y.Z.Z.Z.",
"C.C.N.N.B.Z.T.W.T.Z.Y.Z.Z.T p.p Y Z.>.).*X@X`.D.v.A.A.A.A.A.A.v._ >.Z.R u a.P C.N.N.C.Z.Z.Z.Y.Z.Z.Z.",
"C.N.N.C.C.Z.Z.T.T.T.Y.Z.Z.T u.w V V.-.Q D._ ( ( ( ( ( ) ) ) ) ) Y :.Z.w.N a.L B.N.N.N.C.C.Z.T.T.Z.C.",
"C.C.N.C.C.C.Z.Y.T.T.Y.Z.Y.S 5 4 Z V.2.f : > > > > > > > > * . O s ,.C.K.G q H B.N.N.N.C.C.Z.T.T.Y.Z.",
"C.C.C.Z.Z.C.Z.Z.Z.T.T.T.T.q.[ A / V.C.b.%.7.7.7.7.7.7.7.7.@.& * 5.C.Z.<.Z [ ^ C.N.N.N.C.C.Z.T.T.T.Z.",
"C.Z.Y.T.Y.Z.Z.Z.T.E.E.T.Z.V.R ^ 2.C.C.3.%.7.7.7.7.7.7.7.7.7.- * 5.C.Z.Z.2.! n.N.C.C.C.C.C.Z.T.T.T.Z.",
"Z.Z.T.E.E.T.T.T.T.T.Y.Z.C.N.N.N.C.C.B.3.%.7.7.7.7.+.+.7.7.7.< * 5.C.C.C.Z.C.C.C.C.C.Z.Z.Z.Y.T.E.E.Y.",
"Z.Y.T.E.E.E.T.T.T.T.Z.Z.Z.C.N.N.N.N.N.3.%.7.7.7.7.l l 7.7.7.o.* 2.C.C.C.C.C.C.C.C.C.Z.Z.T.E.W.W.E.T.",
"Y.Y.Y.T.T.T.Z.Z.Y.Y.Z.Z.Z.C.N.N.N.N.N.2.O.7.7.7.7.*.c 6.7.7.O.; 2.B.C.C.C.C.C.C.B.C.Y.T.T.W.Q.W.E.T.",
"T.Z.Z.Y.Z.Z.C.Z.Z.Z.Z.Z.Z.C.N.C.C.N.N.2.O.7.7.7.7.*.c 6.7.7.o.; 2.C.C.C.C.C.C.N.C.Z.T.T.T.T.E.E.E.T.",
"T.Y.Z.Z.Z.C.C.C.Z.Z.Z.Z.C.N.N.C.C.C.N.2.%.7.7.7.7.*.c 6.7.7.k * 2.N.C.C.C.C.C.C.C.T.T.T.Z.C.Z.T.E.E.",
"Y.Z.C.C.C.C.C.C.C.C.C.Z.Z.C.N.Z.Z.C.Z.n.%.7.7.7.7.*.c 6.7.7.< * 2.N.B.C.C.C.C.C.Z.Z.C.C.C.N.N.C.T.T.",
"Z.Z.C.N.C.Z.C.C.C.Z.C.Z.Z.C.C.Z.Z.Z.T.V.%.7.7.7.7.*.c 6.7.6.= * 2.N.N.C.C.C.C.C.C.C.N.N.N.N.N.B.Z.T.",
"Z.Z.C.N.C.Z.Z.Z.Z.Z.Z.Z.Z.Z.Z.Z.Z.T.E.U.%.7.7.7.7.*.c 6.7.o.% * 2.N.B.Z.Z.C.C.Z.Z.C.C.N.N.N.N.N.C.Y.",
"Z.C.N.N.C.Z.Z.Z.Z.Y.Z.Z.Z.Y.T.Z.Z.Y.T.V.%.6.6.6.$.O.c 7.$.= . * 2.B.C.Z.Z.Z.C.Z.Z.C.C.B.N.N.N.N.C.Z.",
"Z.Z.N.N.N.C.Z.Y.T.Z.Z.C.C.Z.Z.Z.Z.Z.T.U.l # + + + z c +.: X X X s 2.Z.Z.Z.Z.Z.Z.C.C.C.C.C.N.N.C.Z.Z.",
"Z.Z.C.N.N.N.C.Z.Z.T.Z.Z.C.C.Z.Z.Z.Z.Y.U.t p.d.d.d.k.f : m h.h.h.K Y Z.Z.C.C.C.C.C.C.C.C.C.N.N.B.Z.T.",
"C.Z.Z.B.N.N.C.C.C.Y.Z.C.C.C.Z.Z.Z.Z.Y.R.G.M.H.H.H.M.>.1.G.G.G.G.G.m.Z.Z.C.Z.C.V.C.C.N.N.N.N.N.C.Z.Z."
};
